<?xml version="1.0" encoding="UTF-8"?>
<svg width="586px" height="527px" viewBox="0 0 586 527" version="1.1" xmlns="http://www.w3.org/2000/svg" xmlns:xlink="http://www.w3.org/1999/xlink">
    <!-- Generator: Sketch 43.2 (39069) - http://www.bohemiancoding.com/sketch -->
    <title>Page 1 Copy</title>
    <desc>Created with Sketch.</desc>
    <defs></defs>
    <g id="Page-1" stroke="none" stroke-width="1" fill="none" fill-rule="evenodd">
        <g id="Index-v1.0" transform="translate(-760.000000, -178.000000)">
            <g id="body">
                <g id="header">
                    <g id="Group-20" transform="translate(50.000000, 178.000000)">
                        <g id="Page-1-Copy" transform="translate(710.000000, 0.000000)">
                            <path d="M561.954141,450.70555 C562.310624,450.924658 562.509213,451.078604 562.732219,451.177162 C567.821466,453.422003 573.176041,454.63728 578.691766,455.100747 C580.627194,455.264467 582.57483,454.937026 584.439449,454.295992 C585.014055,454.098062 585.574011,453.86755 585.608194,453.162983 C585.639936,452.534981 585.118233,452.29551 584.656758,452.058482 C583.670324,451.551031 582.614711,451.242325 581.547702,450.955611 C578.281566,450.077549 574.916949,449.71264 571.615002,449.028436 C569.647019,448.620357 567.76368,448.909515 565.859994,449.315964 C564.543122,449.597791 563.253108,449.941522 561.954141,450.70555 M395.548861,368.535906 C397.868444,368.619802 398.265622,367.998317 397.418363,366.21287 C396.711908,364.722283 395.68478,363.471167 394.521733,362.321867 C393.088474,360.904587 391.55348,359.576091 390.243933,358.052108 C388.891249,356.475181 387.197547,355.677757 385.263747,355.23221 C383.83293,354.902326 383.222513,355.375567 383.167983,356.888147 C383.119149,358.234563 383.549697,359.462057 384.357074,360.525832 C385.774055,362.390287 387.353813,364.116274 389.022286,365.756734 C390.934111,367.635037 393.379033,368.228828 395.548861,368.535906 M369.240716,398.735368 C369.573597,398.719077 370.157969,398.694641 370.741527,398.658802 C371.23393,398.627036 371.621341,398.418516 371.792258,397.929799 C371.976197,397.404428 371.64413,397.05581 371.312063,396.745474 C370.400508,395.896736 369.326988,395.283396 368.233122,394.70508 C364.783861,392.879722 361.151474,391.460813 357.573619,389.918096 C356.254305,389.349555 354.882088,388.966726 353.495222,388.618923 C352.404611,388.345241 351.286327,388.366419 350.203041,388.539099 C349.217422,388.696303 349.001741,389.534453 349.690291,390.237391 C350.006894,390.55913 350.388608,390.820594 350.755672,391.088573 C354.875577,394.093369 359.416263,396.294226 364.189722,398.018583 C365.718205,398.570833 367.347611,398.773651 369.240716,398.735368 M545.185588,358.004051 C545.185588,357.744216 545.206749,357.481938 545.183147,357.223733 C545.030136,355.617482 544.614238,355.392672 543.212722,356.152628 C543.097963,356.214532 542.991344,356.291097 542.883911,356.364405 C537.135413,360.292062 531.43168,364.274292 527.179924,369.93608 C526.931688,370.267594 526.334294,370.490774 526.680197,371.05117 C526.982963,371.543145 527.485133,371.715011 528.042647,371.551291 C530.340255,370.875232 532.749366,370.569784 534.885824,369.361838 C538.084408,367.551955 540.896394,365.278606 543.395033,362.587403 C544.613424,361.276012 545.250699,359.789498 545.185588,358.004051 M339.187055,437.756989 C349.56658,438.686366 359.908666,440.151703 370.60398,438.815876 C368.190799,436.520535 365.684022,434.942793 362.511483,434.552634 C359.218488,434.146998 355.933633,433.676201 352.648777,433.207847 C351.605372,433.058788 350.587197,433.084039 349.545419,433.254275 C345.749441,433.872502 342.449936,435.652247 339.187055,437.756989 M581.000769,403.157444 C580.373261,402.778688 579.807608,403.027119 579.237886,403.091467 C577.102241,403.331753 575.045544,403.903552 572.978266,404.46802 C568.295963,405.74683 563.457394,406.373202 558.862177,408.054389 C556.02903,409.089655 553.066474,409.773045 550.379013,411.336125 C551.668213,411.946207 552.920788,412.482167 554.118833,413.119943 C555.587088,413.900261 557.09848,414.338478 558.781602,414.261912 C559.944649,414.208968 561.128858,414.230145 562.281324,414.386535 C563.739813,414.584465 565.103891,414.348252 566.500524,413.97194 C569.335299,413.208726 571.964161,411.934804 574.663016,410.832747 C575.890361,410.330997 577.038758,409.644349 577.910433,408.72719 C579.39578,407.16411 581.048788,405.596142 581.000769,403.157444 M283.372997,125.784393 C279.843161,125.720859 274.969594,125.846297 270.088702,126.067849 C264.231144,126.334199 258.35568,126.622543 252.621833,127.725414 C248.289502,128.557862 243.898572,128.999337 239.593099,129.983287 C234.981605,131.036473 230.222797,131.420116 225.730944,133.0451 C225.005769,133.307379 224.195949,133.326927 223.436591,133.50368 C222.616191,133.695909 221.755097,133.827048 221.004691,134.182182 C218.064111,135.575841 214.868783,136.232351 211.839488,137.394683 C208.174547,138.801374 204.709822,140.532247 201.268699,142.357606 C199.695452,143.192498 198.376952,144.362161 197.399472,145.861708 C196.581513,147.116082 196.229099,148.491821 196.837888,149.943311 C197.502022,151.529198 198.787152,152.046423 200.114605,151.014416 C203.410041,148.453538 207.382633,147.272471 211.027227,145.433266 C212.756741,144.560091 214.606711,143.822128 216.48598,143.370065 C219.704911,142.595448 222.748041,141.226226 226.047547,140.731807 C229.511458,140.212952 232.794686,138.9374 236.283827,138.373747 C241.667702,137.504645 247.028788,136.509291 252.449288,135.867442 C255.029316,135.561994 257.57923,134.87779 260.161699,134.759683 C263.408302,134.611439 266.667927,134.637504 269.910461,134.348346 C273.479363,134.03068 277.056405,134.003801 280.631819,133.86696 C288.396319,133.568028 296.085127,134.958428 303.838233,134.726287 C304.220761,134.714884 304.608172,134.835434 304.989886,134.911185 C309.904147,135.890249 314.907122,136.248641 319.846613,137.056654 C323.370752,137.632526 326.82978,138.58308 330.401938,138.880383 C330.78528,138.91215 331.166994,139.040031 331.534872,139.167912 C334.792055,140.299292 338.168066,140.995714 341.505011,141.814315 C345.051124,142.685046 348.598866,143.657594 351.877211,145.153883 C356.163149,147.108751 360.747786,148.586306 364.401333,151.806138 C365.484619,152.759951 366.779516,152.254128 367.013916,150.816485 C367.415163,148.36394 367.350052,145.922798 365.042677,144.29374 C363.079577,142.909856 361.149847,141.382615 358.987344,140.39785 C353.310469,137.81498 347.453724,135.654036 341.461874,133.90117 C337.910063,132.861832 334.331394,131.921866 330.671336,131.303638 C326.392722,130.579522 322.237005,129.185049 317.845261,129.048209 C316.761161,129.013998 315.687641,128.601847 314.612494,128.350972 C313.665127,128.12942 312.732411,127.777544 311.772836,127.678986 C309.314077,127.428926 306.86183,127.104743 304.405513,126.862828 C297.863474,126.216093 291.305158,125.772175 283.372997,125.784393" id="Fill-1" fill="#FFFFFF"></path>
                            <path d="M273.284681,271.747428 C272.801231,276.678584 277.849784,281.016763 282.254551,281.081926 C287.285198,281.156862 291.650898,276.602833 291.689151,271.910334 C291.729031,266.994653 287.247759,262.549771 282.411631,262.564432 C277.480278,262.579094 272.861459,267.157559 273.284681,271.747428 M111.179989,465.549845 C119.681873,465.509933 127.544853,465.142581 135.369581,464.204244 C137.948795,463.894723 140.546728,463.74485 143.09827,463.163276 C148.296578,461.978952 153.504653,460.835354 158.729006,459.776466 C161.995956,459.114255 165.144078,458.149038 168.204301,456.835204 C169.676626,456.20313 170.381453,455.694864 169.522801,453.888239 C169.190734,453.188559 169.053187,452.40091 168.756117,451.682496 C165.427312,443.634139 162.629976,435.377262 158.970731,427.454343 C155.398573,419.71795 152.937373,411.532752 149.900753,403.577252 C146.259414,394.041565 142.507387,384.549049 138.875001,375.010105 C136.746681,369.419995 134.500348,363.874684 132.328078,358.300865 C129.234487,350.364913 126.161242,342.420816 123.074976,334.481606 C120.083934,326.787568 116.770592,319.22467 113.866637,311.491536 C110.690028,303.031842 107.345759,294.634052 104.04137,286.222415 C103.652331,285.231949 103.435837,283.766612 102.144195,283.760096 C100.750817,283.75195 100.534323,285.250683 100.102962,286.307126 C98.7519061,289.618185 97.4464283,292.947978 96.0807228,296.251706 C91.8590811,306.468338 87.5104728,316.63284 83.4157978,326.899159 C79.1030006,337.71284 74.4508117,348.381536 70.0191867,359.144717 C66.4299367,367.861802 62.7511589,376.543048 59.1212144,385.243028 C57.46902,389.203266 56.1122672,393.282425 54.4934422,397.248364 C48.1678978,412.736626 41.6852728,428.160539 35.2563644,443.606445 C34.3985256,445.668831 34.6475756,446.44019 36.60742,447.516182 C37.0045978,447.734476 37.4294478,447.908785 37.85267,448.071691 C45.316845,450.953493 52.6621922,454.113864 59.94487,457.422479 C61.1925617,457.989391 62.4768783,458.425978 63.7750311,458.858493 C69.709095,460.840241 75.7790783,462.255891 81.9263811,463.371796 C84.9955561,463.929748 88.04357,464.772785 91.1371617,464.994337 C98.0104533,465.487941 104.894326,466.164 111.179989,465.549845 M479.411809,487.801137 C481.624773,487.801137 483.841806,487.874445 486.050701,487.78729 C493.593823,487.488358 501.08567,486.573643 508.599492,485.902471 C515.043864,485.326599 521.22942,483.472732 527.603798,482.613405 C528.846606,482.446426 529.680028,481.331337 529.513995,480.283853 C529.423653,479.716941 529.157512,479.17365 528.945901,478.63036 C526.747587,472.997895 524.532181,467.371946 522.344448,461.736222 C516.158892,445.794269 509.980662,429.850686 503.804873,413.905474 C501.268795,407.358293 498.754692,400.802153 496.215359,394.256601 C493.135603,386.315762 490.029803,378.384697 486.953303,370.443043 C482.254723,358.320414 477.614742,346.174164 472.868142,334.069454 C469.877914,326.443023 466.827459,318.841028 463.998381,311.151878 C463.714334,310.381334 463.336689,309.63604 462.499198,309.511417 C461.533926,309.366431 461.231159,310.252638 460.873862,310.936842 C460.663064,311.339219 460.501914,311.767661 460.325301,312.187958 C458.642178,316.206028 456.939523,320.215137 455.281631,324.243796 C449.690214,337.832576 444.110192,351.426244 438.534239,365.020726 C434.560834,374.706286 430.612659,384.401619 426.630301,394.082292 C424.032367,400.396517 421.368509,406.683864 418.777087,412.999718 C415.494673,420.999204 412.274114,429.02231 408.994142,437.023425 C404.555192,447.852582 400.096709,458.673595 395.617878,469.486462 C394.783642,471.500791 395.518584,472.330796 396.911962,473.23085 C397.396226,473.544443 397.955367,473.754592 398.502301,473.954151 C406.137392,476.731694 413.913287,479.063689 421.79987,480.984347 C431.472939,483.340779 441.308787,484.883496 451.176376,486.125652 C460.540981,487.30346 469.965814,487.832089 479.411809,487.801137 M111.247542,267.77823 C111.137667,268.730414 111.669951,269.512361 112.004459,270.32689 C119.235048,287.955732 126.491681,305.573986 133.723084,323.201199 C141.373639,341.852275 148.997337,360.514754 156.644637,379.16583 C163.528509,395.954079 170.426217,412.734182 177.319856,429.517544 C179.766406,435.471748 182.217839,441.425137 184.674156,447.376083 C184.871931,447.854211 185.039592,448.388542 185.374101,448.758338 C187.675778,451.310256 187.757167,451.425919 190.635078,450.298612 C194.263395,448.87563 197.970659,447.65791 201.638042,446.335116 C202.534134,446.011748 203.325234,445.789381 204.094359,446.691065 C204.836626,447.559352 204.346664,448.342929 204.010528,449.035278 C202.986656,451.14002 201.810587,453.169011 200.740323,455.252575 C198.117159,460.356411 195.243317,465.305487 191.489662,469.673803 C186.095206,475.953004 179.685831,481.059284 172.620462,485.293204 C164.886889,489.927871 156.56162,493.219381 147.869287,495.627128 C143.170706,496.92793 138.432245,498.000664 133.633556,498.81112 C130.631934,499.317757 127.590431,499.540938 124.56602,499.877338 C118.673464,500.53059 112.770328,500.708972 106.863123,500.565615 C101.164273,500.42796 95.4882117,500.09889 89.8561006,498.899904 C83.3791728,497.521721 76.8810839,496.250242 70.5392617,494.341802 C66.4413311,493.108606 62.4020006,491.663632 58.4473144,490.009324 C50.5135256,486.690935 42.7840228,482.952249 35.6747033,478.082182 C28.8453617,473.40353 22.4237783,468.196249 16.9642117,461.930895 C11.6845144,455.869987 7.226845,449.242983 3.89315611,441.892677 C2.92625611,439.761055 1.89912833,437.656313 0.903742222,435.53691 C0.683178333,435.066113 0.458545,434.595315 0.27542,434.109856 C0.0214866667,433.437055 -0.238143889,432.765884 0.393433889,432.119148 C1.09419222,431.400734 1.86413111,431.685819 2.55186722,432.009187 C4.61100611,432.978476 6.640845,434.010483 8.67149778,435.037604 C10.5873922,436.007708 12.4796839,437.023425 14.4004617,437.978867 C16.6150533,439.081738 17.8741394,438.645151 18.9305672,436.355511 C19.6386506,434.822568 20.2588339,433.245641 20.8692506,431.667899 C23.9701672,423.656196 27.7384728,415.936909 31.24552,408.103587 C36.7726394,395.759406 42.3892867,383.454323 47.9750061,371.136207 C53.29377,359.410253 58.633695,347.693259 63.9426922,335.962419 C69.7619978,323.107528 75.54712,310.237162 81.3639839,297.381457 C85.9209478,287.309811 90.50477,277.248754 95.0763839,267.183624 C95.2106756,266.887136 95.3734533,266.600422 95.4735617,266.29253 C95.7022644,265.592035 95.6648256,265.078882 94.7614089,264.84104 C91.1192561,263.883969 87.4990783,262.840558 83.8561117,261.887559 C82.7825922,261.606547 82.0745089,262.207669 81.4201422,263.077585 C79.1713672,266.070164 76.3447311,268.301157 72.6309561,269.197139 C62.5875672,271.621176 54.4283311,265.597737 52.6149867,257.181213 C50.5070144,247.399539 57.0669589,238.860021 66.1442617,237.672439 C74.0332867,236.639616 80.4353367,240.946844 83.1740728,247.338449 C83.3278978,247.696842 83.509395,248.049533 83.6127589,248.422587 C83.8211144,249.181728 84.3045644,249.390247 85.0565978,249.375585 C93.9092672,249.204534 102.764378,249.320198 111.616234,249.053032 C115.846014,248.925151 120.079864,248.938998 124.311273,248.889312 C139.284387,248.715817 154.259128,248.631921 169.229801,248.335432 C178.604173,248.150534 187.980173,248.221398 197.352103,247.980298 C208.02707,247.706616 218.70692,247.827167 229.379445,247.557558 C238.753003,247.32053 248.128189,247.365329 257.501748,247.214641 C263.619751,247.116898 269.741009,247.098164 275.855756,246.890459 C279.660687,246.760949 283.379345,247.265956 287.10777,247.844272 C295.332117,249.119823 303.558092,250.375827 311.782439,251.648935 C319.749598,252.882131 327.713501,254.134062 335.680659,255.364814 C343.648631,256.594752 351.619859,257.802698 359.587831,259.031007 C368.583745,260.41815 377.576403,261.82647 386.573131,263.208725 C395.504748,264.579576 404.443689,265.917847 413.375306,267.291142 C421.344092,268.516193 429.307181,269.776269 437.274339,271.006207 C445.241498,272.23696 453.211912,273.451422 461.181512,274.668327 C467.793545,275.678343 474.406392,276.681842 481.019239,277.686156 C481.275614,277.724439 481.544198,277.705704 481.793248,277.769238 C483.285106,278.152881 484.126667,277.748874 485.006481,276.269691 C488.229481,270.850632 493.021659,268.134179 499.470101,267.89878 C506.480126,267.643018 514.947826,272.824235 516.184937,282.357477 C517.463556,292.21816 510.78397,299.974102 502.284528,301.185306 C494.778845,302.255596 488.733278,299.433255 484.826612,292.769596 C484.279678,291.836961 483.732745,291.512779 482.692595,291.534771 C479.504592,291.601562 476.313334,291.551062 473.122889,291.577941 C471.579756,291.591788 471.496739,291.709895 472.072973,293.144279 C474.470689,299.118847 476.887126,305.086083 479.306003,311.051691 C484.975553,325.034703 490.650801,339.014457 496.322792,352.996655 C501.578887,365.952547 506.833353,378.910068 512.08782,391.866774 C518.882164,408.620813 525.674067,425.375666 532.471667,442.127261 C536.750281,452.673777 541.037848,463.216221 545.322159,473.759479 C545.616787,474.485224 546.00257,475.122185 546.561712,475.710275 C547.547331,476.744726 548.564692,476.962205 549.897028,476.456383 C553.297456,475.164541 556.725556,473.949264 560.145517,472.710366 C560.937431,472.423652 561.708998,472.083994 562.561953,471.973218 C563.686748,471.828232 564.481917,472.46112 564.404598,473.550145 C564.377739,473.929715 564.270306,474.330463 564.097762,474.668493 C561.461576,479.822015 559.21687,485.185686 555.888878,489.966154 C551.120303,496.817154 545.286348,502.592162 538.473284,507.411728 C530.541123,513.023015 521.875648,517.113578 512.662426,520.091494 C507.902803,521.630139 503.069117,522.951304 498.168692,523.896972 C493.022473,524.889882 487.832303,525.710113 482.548537,525.770388 C479.835845,525.80134 477.131292,526.37151 474.417787,526.431785 C469.095767,526.549891 463.775376,526.73316 458.46882,525.832292 C456.055639,525.422584 453.560256,525.49915 451.137309,524.953415 C446.077362,523.811446 440.977534,522.839714 435.944445,521.590227 C430.584987,520.260102 425.367959,518.460808 420.249412,516.361768 C415.977309,514.610531 411.727995,512.817754 407.612973,510.724415 C399.518848,506.606159 392.000956,501.621244 385.205798,495.579885 C379.154534,490.199109 373.642878,484.344278 369.343917,477.415898 C367.245712,474.03316 365.535731,470.454122 363.772034,466.898704 C362.73107,464.801293 361.73487,462.68189 360.715067,460.57389 C360.46032,460.04689 360.147787,459.545955 360.083489,458.945647 C359.963034,457.806936 360.788317,457.041279 361.877301,457.389083 C362.738395,457.663579 363.584839,458.037448 364.37187,458.48381 C367.772298,460.409355 371.327364,462.027823 374.80267,463.802681 C376.883784,464.864012 378.060667,464.50399 379.030009,462.347119 C380.548726,458.968454 382.013726,455.559652 383.34362,452.101978 C385.401131,446.755412 387.85582,441.585599 390.198192,436.366915 C394.777131,426.163315 399.395137,415.97682 404.004189,405.786253 C407.488448,398.083256 410.984101,390.385147 414.47487,382.685408 C419.387503,371.84729 424.302578,361.009173 429.214398,350.170241 C434.474562,338.560765 439.737167,326.951289 444.988378,315.33774 C448.338345,307.931232 451.67122,300.519021 455.006537,293.105997 C455.161176,292.762266 455.449292,292.441341 455.242564,291.907825 C454.582501,291.551876 453.794656,291.729443 453.045878,291.730258 C427.067359,291.767726 401.088839,291.819856 375.109506,291.86547 C348.870542,291.911083 322.630764,291.950995 296.391801,292.00231 C294.049428,292.007198 291.702173,292.001496 289.364684,292.129377 C284.516348,292.394913 279.76812,291.600748 275.005242,290.914915 C268.120556,289.923633 261.234242,288.947014 254.348742,287.963063 C247.462428,286.978298 240.577742,285.987017 233.691428,285.007953 C226.803487,284.02889 219.913917,283.065303 213.025976,282.085425 C206.138848,281.105547 199.254162,280.111007 192.367848,279.128686 C185.609314,278.164284 178.849967,277.205584 172.091434,276.247698 C165.266976,275.281667 158.441703,274.325411 151.618059,273.355307 C144.66582,272.367284 137.713581,271.378446 130.764598,270.369245 C124.973778,269.527837 119.187842,268.653848 113.398651,267.799408 C112.702776,267.696777 112.005273,267.434499 111.247542,267.77823" id="Fill-3" fill="#FFFFFF"></path>
                            <path d="M338.841315,173.936798 L338.825851,173.936798 C338.825851,177.584257 338.864104,181.231716 338.812829,184.878361 C338.778646,187.299954 340.128073,188.718048 342.077337,189.764718 C342.87739,190.193974 343.723021,190.167909 344.516562,189.781823 C346.534193,188.798687 347.900712,187.218501 347.925129,184.935378 C348.001634,177.641274 347.973148,170.346356 347.936523,163.052252 C347.926757,161.090053 346.137015,158.999158 344.099851,158.341019 C342.726821,157.897101 340.854062,158.79634 339.623462,160.434357 C338.953632,161.325452 338.83399,162.324878 338.837246,163.385395 C338.847826,166.902529 338.841315,170.419664 338.841315,173.936798 L338.841315,173.936798 Z M214.094937,173.998702 L214.114471,173.998702 C214.114471,177.707251 214.08924,181.416614 214.123423,185.124348 C214.144584,187.534538 215.472851,189.295549 217.610123,189.982197 C218.136709,190.150804 218.60144,190.148361 219.122329,189.98464 C221.274251,189.308582 223.022484,187.16963 223.034693,184.910127 C223.072946,177.752864 223.050971,170.595602 223.048529,163.438339 C223.047715,161.766112 222.30789,160.423769 221.082173,159.356736 C218.529818,157.136331 214.864876,158.389076 214.169001,161.711538 C214.077032,162.14894 214.098193,162.614851 214.097379,163.067728 C214.092496,166.711115 214.094937,170.355316 214.094937,173.998702 L214.094937,173.998702 Z M234.951654,167.535418 L234.972815,167.535418 C234.972815,171.182062 234.969559,174.828707 234.976071,178.476166 C234.976884,179.191322 234.944329,179.917067 235.048507,180.620005 C235.344762,182.60664 237.058812,184.402676 238.809487,184.643776 C240.270418,184.845779 242.063415,183.6696 242.959507,181.898 C243.375404,181.076956 243.612246,180.208668 243.611432,179.273589 C243.609804,171.32379 243.627709,163.374806 243.613059,155.425007 C243.60899,153.360991 242.56884,151.838637 240.868626,150.761016 C239.642909,149.983956 238.401729,150.043416 237.224032,150.901929 C235.629623,152.065076 234.925609,153.643633 234.941073,155.616421 C234.973629,159.588877 234.951654,163.562147 234.951654,167.535418 L234.951654,167.535418 Z M306.136818,163.053881 L306.129493,163.053881 C306.129493,159.014634 306.159607,154.974572 306.116471,150.935325 C306.096123,148.936472 304.819946,147.291939 302.977301,146.668824 C301.294179,146.099469 299.386423,146.753535 298.115943,148.297067 C297.319146,149.264727 297.157182,150.374115 297.161251,151.585319 C297.183226,159.338002 297.171832,167.090685 297.172646,174.844183 C297.172646,175.235157 297.131951,175.632647 297.187296,176.015475 C297.467273,177.946722 298.615671,179.183177 300.401343,179.831541 C302.157715,180.469317 303.587718,179.828283 304.780065,178.531554 C305.749407,177.479183 306.154723,176.217478 306.145771,174.78065 C306.12054,170.871727 306.136818,166.962804 306.136818,163.053881 L306.136818,163.053881 Z M276.013976,161.627642 L276.007465,161.627642 C276.007465,165.402167 276.013162,169.177507 276.005837,172.952033 C276.001768,174.855586 277.067962,176.12788 278.542729,177.075177 C280.074468,178.058313 281.681898,177.816398 283.151782,176.905755 C284.711193,175.939724 285.347654,174.487419 285.328121,172.616447 C285.263823,166.440691 285.300448,160.264936 285.276032,154.088365 C285.270334,152.659682 285.500665,151.235886 285.298007,149.802316 C285.046515,148.016869 284.206582,146.627283 282.674843,145.67347 C281.659923,145.041396 280.575009,144.947725 279.522651,145.512194 C277.387007,146.655792 275.967584,148.270187 276.001768,150.889711 C276.048973,154.46875 276.013976,158.048603 276.013976,161.627642 L276.013976,161.627642 Z M264.468962,163.438339 L264.442918,163.438339 C264.442918,159.399906 264.436407,155.362288 264.445359,151.32467 C264.450243,149.390164 263.394629,147.728526 261.626862,147.066314 C259.849329,146.40003 258.298057,146.867569 256.990137,148.182218 C255.82709,149.352696 255.385148,150.778936 255.394915,152.435687 C255.432354,159.078982 255.410379,165.723906 255.409565,172.368016 C255.409565,173.540937 255.341198,174.717931 255.423401,175.884336 C255.599201,178.381681 257.846348,180.470132 260.198487,180.405784 C262.607598,180.338993 264.490123,178.168274 264.474659,175.550379 C264.451057,171.512761 264.468962,167.475143 264.468962,163.438339 L264.468962,163.438339 Z M318.106682,167.501208 C318.106682,171.407687 318.135168,175.314166 318.094473,179.220645 C318.07494,181.046004 318.707332,182.524373 320.104779,183.672044 C321.556757,184.864514 323.003037,184.964701 324.590121,183.965274 C326.243943,182.922677 327.148987,181.460599 327.148173,179.440568 C327.14329,171.497285 327.167707,163.553187 327.191309,155.609905 C327.197821,153.426968 326.077909,151.932308 324.310143,150.846541 C322.946065,150.009206 321.579546,150.102062 320.296043,151.043657 C318.769187,152.163634 318.075754,153.676214 318.094473,155.585469 C318.13354,159.55711 318.105868,163.528752 318.106682,167.501208 L318.106682,167.501208 Z M359.826626,177.164775 C359.826626,183.54905 359.850229,189.93414 359.816046,196.318415 C359.799768,199.227096 361.133732,200.720127 364.001062,200.748636 C369.535507,200.80158 375.049604,201.31066 380.577537,201.496373 C381.314921,201.521623 382.028701,201.599818 382.574007,202.128447 C383.844487,203.360014 384.798365,204.848973 385.731896,206.328157 C386.267434,207.176895 385.766893,208.183653 384.789412,208.528198 C384.373515,208.674813 383.893321,208.685402 383.44324,208.684588 C375.761757,208.673999 368.080273,208.678886 360.399604,208.619426 C357.515996,208.596619 354.805746,207.948254 352.167118,206.612427 C349.224909,205.122654 346.198871,203.736327 343.010868,202.790659 C337.514676,201.159973 332.331832,198.721274 327.029346,196.592096 C326.065701,196.205195 325.083337,195.863908 324.100973,195.525064 C321.522573,194.636413 318.931965,193.80315 316.426001,192.690504 C312.389112,190.898541 308.226884,189.428317 304.024776,188.041175 C300.458315,186.863367 297.061143,185.176478 293.577698,183.742093 C289.850901,182.208336 285.929584,181.199949 282.242668,179.553787 C281.157754,179.069957 280.048423,179.195395 279.022109,179.688999 C275.614357,181.32783 271.951043,182.284087 268.45539,183.698109 C263.28394,185.789818 258.145859,187.990674 252.816515,189.674305 C249.276912,190.792653 245.956246,192.445331 242.532215,193.843877 C241.871337,194.113486 241.225109,194.453959 240.537373,194.617679 C235.252793,195.872868 230.404457,198.267582 225.438921,200.358477 C223.042832,201.366048 220.545007,202.124374 218.077296,202.90062 C214.771279,203.939959 211.685012,205.453353 208.530379,206.810357 C205.919423,207.934407 203.319048,208.682959 200.446834,208.658523 C193.547498,208.600691 186.646534,208.659337 179.746384,208.687031 C178.785182,208.690289 177.897229,208.55182 177.381223,207.647693 C176.887193,206.782664 177.396687,206.068322 177.779215,205.292076 C179.319093,202.16673 181.662279,200.64682 185.262109,200.836605 C189.748265,201.072818 194.196982,200.007415 198.688834,200.13611 C200.542873,200.189055 202.273201,198.237444 202.256109,196.316786 C202.151118,184.068719 202.260179,171.818209 202.138909,159.570957 C202.113679,156.995418 203.177432,155.372877 205.177971,154.12339 C205.891751,153.677843 206.662504,153.314563 207.430001,152.962687 C211.026576,151.314895 214.746048,149.965221 218.410176,148.490925 C221.887923,147.092379 225.532518,146.514064 229.063982,145.462507 C231.94759,144.60318 234.967118,143.905943 238.033037,143.70394 C238.610084,143.665657 239.189573,143.524744 239.747901,143.361838 C241.942959,142.721619 244.163248,142.255708 246.464112,142.25245 C247.514843,142.250007 248.521623,141.996688 249.524334,141.695313 C251.839848,141.001334 254.208265,140.55986 256.627957,140.563118 C258.072609,140.564747 259.465987,140.221016 260.895176,140.12816 C273.381859,139.316889 285.882379,139.327478 298.367434,139.874027 C303.856301,140.114313 309.429812,140.283735 314.768109,142.00239 C315.495726,142.236974 316.311243,142.249192 317.088507,142.266297 C319.385301,142.318427 321.570593,142.891041 323.795765,143.40175 C326.316379,143.98088 328.944426,144.141342 331.436554,144.874418 C335.666334,146.117388 340.014943,146.832545 344.229259,148.225388 C348.508687,149.640225 352.560226,151.473728 356.649204,153.2942 C358.769384,154.237424 359.696404,155.726382 359.68094,158.011949 C359.639432,164.396225 359.66629,170.7805 359.66629,177.164775 L359.826626,177.164775 Z" id="Fill-5" fill="#FFFFFF"></path>
                            <path d="M302.789781,246.855841 C297.555662,245.774962 292.246664,244.826036 287.019056,243.548041 C283.332139,242.647172 279.732309,242.643099 276.020162,243.193721 C271.840028,243.815206 267.619201,244.15405 263.422789,244.675348 C262.486003,244.791826 262.117312,244.618331 262.160448,243.606687 C262.236953,241.785401 262.084756,239.947824 262.254859,238.137942 C262.480306,235.748929 260.901362,233.947192 258.137395,233.955337 C229.492576,234.038419 200.846942,233.944749 172.202123,234.080775 C168.431376,234.098694 166.416187,231.911685 164.25287,229.600053 C163.410495,228.699999 163.760467,227.681024 164.379023,226.73617 C165.448473,225.103855 166.615589,223.53996 167.654112,221.882395 C168.485092,220.555528 169.296539,219.233548 169.944395,217.808123 C170.349712,216.916214 170.876298,216.101685 171.584381,215.401191 C172.624531,214.371626 173.846178,214.026266 175.299784,214.031153 C186.953859,214.064549 198.60712,214.050702 210.260381,214.050702 C268.071723,214.050702 325.883878,214.050702 383.69522,214.056404 C385.645298,214.056404 387.563634,213.681721 389.523478,213.701269 C391.255434,213.718374 392.491731,214.303206 393.483862,215.704195 C396.002034,219.261242 398.575551,222.778376 401.137673,226.303656 C401.711464,227.092119 402.321067,227.855333 402.931484,228.616102 C403.51667,229.345106 403.524809,230.014648 402.824051,230.677674 C401.971909,231.482429 401.170228,232.345014 400.285531,233.109042 C399.638489,233.666994 398.849017,233.991991 397.959437,233.989548 C397.243214,233.987104 396.527806,234.005838 395.811584,234.005838 C366.255209,234.006653 336.69802,234.013983 307.141645,233.983846 C305.602581,233.982217 304.314195,234.269745 303.366014,235.546926 C302.733623,236.400552 302.356792,237.269654 302.478876,238.422212 C302.740134,240.881274 302.833731,243.358255 302.993253,245.827906 C303.014414,246.152089 303.038831,246.480344 302.789781,246.855841" id="Fill-7" fill="#FFFFFF"></path>
                            <path d="M280.018309,31.8763321 C280.973815,31.8038391 282.117329,32.0775207 283.278748,32.2102889 C289.579062,32.9278886 295.343023,35.2158994 300.906768,38.1148066 C301.251857,38.2948175 301.601015,38.4780864 301.912734,38.708598 C308.181307,43.3286042 313.777607,48.5888298 318.143307,55.1213491 C322.286001,61.3182827 325.731193,67.8336969 328.048334,74.9323136 C328.592826,76.5996536 329.250448,78.2295253 329.796568,79.8960509 C330.062709,80.7065068 330.197815,81.5462858 329.444154,82.2524821 C328.684796,82.9619365 327.905904,82.70536 327.082248,82.420275 C323.031523,81.0168422 318.979984,79.6248128 314.680209,79.1385393 C313.722262,79.0310215 312.796057,78.6490076 311.847876,78.4250122 C308.428729,77.6169998 304.927379,77.3253986 301.468351,76.7633739 C299.67454,76.4725872 297.892123,76.0865006 296.124357,75.6596876 C294.655287,75.3061822 293.178079,75.1815594 291.678896,75.1815594 C284.000668,75.1823739 276.32244,75.2157696 268.645026,75.1595671 C266.528101,75.144091 264.533259,75.7232209 262.487143,76.0555485 C257.93669,76.794326 253.373215,77.4793445 248.856132,78.390802 C246.057168,78.9560849 243.224021,79.387785 240.460868,80.0907232 C237.764454,80.7773708 235.142918,81.7605068 232.491268,82.6214635 C231.998865,82.7819257 231.534948,83.0499056 231.033593,83.1549798 C229.818457,83.4091127 229.018404,82.6002858 229.215365,81.3727912 C229.235712,81.2449102 229.263384,81.1145856 229.313846,80.996479 C231.429957,76.1019767 232.745201,70.912615 234.853987,66.0132255 C236.327126,62.5905764 238.307318,59.4578994 240.237862,56.299972 C243.170304,51.5007696 246.803504,47.2815114 250.943757,43.4646304 C256.225082,38.596193 262.395987,35.3193445 269.222073,33.4068314 C272.625757,32.4538329 276.189776,31.8323476 280.018309,31.8763321" id="Fill-9" fill="#FFFFFF"></path>
                            <path d="M279.932526,95.2568383 C284.885853,94.8780825 289.522578,95.5964968 294.167442,96.1845864 C294.554853,96.2334581 294.946334,96.35971 295.327234,96.3295725 C299.139489,96.0338986 302.815826,97.0707935 306.555645,97.4650253 C307.32477,97.5464782 308.081687,97.7786189 308.83372,97.9789929 C310.406153,98.3984751 311.976145,98.8098121 313.621014,98.8440223 C314.135392,98.8546111 314.662792,98.9393221 315.158451,99.0810501 C318.029037,99.9045385 320.906948,100.707664 323.754745,101.607718 C327.647576,102.837656 331.561567,104.03094 335.303828,105.679546 C339.484776,107.520381 343.405278,109.818981 346.847214,112.853914 C348.02247,113.88918 348.536848,115.22745 348.496967,116.857322 C348.416392,120.112178 348.477434,123.370293 348.466853,126.626778 C348.464412,127.143189 348.463598,127.680778 348.331748,128.173568 C347.995612,129.427942 347.027898,130.0535 345.818459,129.623429 C342.501862,128.444806 339.063181,127.736981 335.681473,126.809232 C333.756626,126.281418 332.941923,125.077545 332.954131,123.052627 C332.966339,120.838738 333.029009,118.624849 333.039589,116.41096 C333.042845,115.636344 333.122606,114.861727 332.886578,114.086296 C332.342087,112.294333 330.562112,110.841214 329.060487,111.032628 C327.428639,111.241147 325.752842,113.064062 325.692614,114.84788 C325.626689,116.799491 325.690173,118.755988 325.678778,120.710857 C325.661687,123.51365 324.505151,124.510633 321.772926,124.087078 C321.195064,123.99748 320.620459,123.88426 320.048295,123.765339 C317.817426,123.301058 316.693445,121.955457 316.682051,119.674777 C316.669842,117.199424 316.695073,114.724072 316.704839,112.248719 C316.705653,111.857746 316.674726,111.462699 316.717048,111.076613 C316.970167,108.807336 314.887426,106.617069 312.934906,106.667569 C310.973434,106.718885 309.024984,108.645245 309.119395,111.088016 C309.209737,113.429786 309.15602,115.776443 309.187762,118.120656 C309.222759,120.751583 308.05727,121.789293 305.446314,121.452892 C304.739045,121.361665 304.017939,121.377141 303.307414,121.303834 C301.037478,121.069249 300.129178,119.796956 300.218706,117.487767 C300.344045,114.235355 300.33672,110.975611 300.291956,107.720755 C300.269167,106.097399 299.295756,104.937511 297.990278,104.071667 C297.007914,103.420044 295.996251,103.534892 295.070859,104.185701 C293.67097,105.168837 292.798481,106.425654 292.844059,108.262416 C292.918937,111.258253 292.891264,114.255718 292.887195,117.252368 C292.883126,119.593324 291.794956,120.600896 289.523392,120.424143 C288.61672,120.354093 287.707606,120.315811 286.80012,120.257979 C284.885039,120.137429 283.988948,119.212939 283.983251,117.273546 C283.973484,114.017061 283.985692,110.759761 284.010109,107.502461 C284.019062,106.301846 283.821287,105.168022 283.141689,104.156378 C282.205717,102.764348 280.636539,102.031273 279.318039,102.357899 C277.599106,102.783083 276.138989,104.499294 276.069809,106.316508 C276.007953,107.942307 276.059228,109.572993 276.060042,111.201236 C276.060856,113.221266 276.082017,115.241297 276.054345,117.259699 C276.025859,119.343263 275.053262,120.348392 272.982728,120.50641 C272.205464,120.565871 271.427387,120.620444 270.650123,120.675018 C268.371234,120.837109 267.225278,119.778222 267.230976,117.495098 C267.239114,114.499262 267.252137,111.502611 267.283878,108.506775 C267.292831,107.645818 267.223651,106.823959 266.766245,106.063189 C265.926312,104.666273 264.250514,103.692096 263.09642,103.955189 C261.372603,104.347792 259.75622,106.199215 259.730176,108.048195 C259.683784,111.238704 259.696806,114.43247 259.796101,117.620535 C259.867723,119.940313 259.047323,121.11975 256.747273,121.591362 C255.983845,121.746937 255.216348,121.885407 254.453734,122.048313 C252.231003,122.522368 250.770887,121.409722 250.71717,119.0818 C250.666709,116.868726 250.728564,114.653208 250.741587,112.438504 C250.745656,111.852858 250.723681,111.263954 250.767631,110.680752 C250.910876,108.764166 249.034862,106.619512 247.014789,106.69282 C245.094012,106.762869 243.250553,108.580897 243.271714,110.745914 C243.300201,113.677402 243.280667,116.608891 243.283109,119.540379 C243.283109,119.670704 243.287178,119.801028 243.288806,119.931353 C243.332756,122.79605 242.744314,123.562521 239.962442,124.304557 C239.334934,124.47235 238.728587,124.723225 238.097823,124.873913 C235.797773,125.425348 234.448345,124.273605 234.517526,121.904141 C234.581009,119.757044 234.583451,117.607503 234.609495,115.459591 C234.623331,114.298073 234.211503,113.306792 233.419589,112.459682 C231.717748,110.635953 229.692792,110.663647 228.050364,112.54928 C227.247056,113.472956 226.866156,114.558722 226.908478,115.779701 C227.006959,118.64114 226.757095,121.505837 227.059048,124.367276 C227.220198,125.900219 226.250042,127.360668 224.582384,127.631906 C221.474142,128.136914 218.663784,129.576186 215.611701,130.228623 C213.934276,130.586202 212.979584,130.003814 212.772042,128.294933 C212.717512,127.844498 212.741928,127.383475 212.741928,126.928154 C212.739487,123.345042 212.807853,119.760302 212.711814,116.179634 C212.662981,114.390115 213.345834,113.11212 214.566667,111.877294 C216.256301,110.167599 218.412292,109.221931 220.382717,107.979775 C224.198228,105.574472 228.461378,104.163709 232.709878,102.765977 C236.224251,101.609347 239.785014,100.59363 243.324617,99.5127502 C243.697378,99.3987162 244.057931,99.1730918 244.43232,99.1535431 C248.086681,98.9670161 251.590473,97.8902093 255.161817,97.2516189 C260.999028,96.2073932 266.931464,96.2798862 272.771931,95.3228151 C275.179414,94.9277688 277.704912,95.2568383 279.932526,95.2568383" id="Fill-11" fill="#FFFFFF"></path>
                            <path d="M280.762285,208.633028 C265.857538,208.633028 250.952791,208.628955 236.048858,208.636286 C233.184783,208.637915 230.321521,208.683529 227.45826,208.712037 C226.739596,208.719368 226.015235,208.721812 225.34866,208.421251 C224.26863,207.934977 224.140849,207.001527 225.090658,206.328727 C225.558644,205.996399 226.127552,205.795211 226.667974,205.577731 C227.450121,205.262509 228.237966,204.957061 229.039646,204.698855 C234.288416,203.009523 239.259649,200.578969 244.524696,198.922218 C247.064844,198.123166 249.493488,197.01052 251.934341,195.935342 C254.483441,194.812921 257.120441,193.880286 259.737094,192.934619 C264.988305,191.036767 270.23626,189.158464 275.313299,186.809364 C278.908246,185.146096 282.568305,185.009255 286.221852,186.819952 C291.060421,189.220368 296.191991,190.882821 301.230777,192.789632 C305.77716,194.510731 310.390282,196.085215 314.806444,198.145972 C315.276871,198.365895 315.742416,198.627359 316.239702,198.75524 C321.232096,200.037308 325.811849,202.413288 330.628444,204.162081 C332.277382,204.761574 333.920624,205.359438 335.60863,205.846526 C336.411124,206.077852 337.395116,206.411809 337.238035,207.453591 C337.089907,208.438356 336.096963,208.592302 335.236682,208.671311 C334.654752,208.72507 334.06631,208.709594 333.48031,208.709594 C315.908449,208.711223 298.33496,208.710408 280.762285,208.710408 L280.762285,208.633028 Z" id="Fill-13" fill="#FFFFFF"></path>
                            <path d="M283.372834,125.784148 C291.305809,125.77193 297.864126,126.215848 304.405351,126.862584 C306.861667,127.105314 309.313914,127.429496 311.773487,127.679556 C312.732248,127.7773 313.664964,128.129176 314.612331,128.350728 C315.688292,128.601603 316.760998,129.013754 317.845098,129.047964 C322.236842,129.184805 326.392559,130.580093 330.671173,131.303394 C334.331231,131.922436 337.909901,132.861587 341.461712,133.900926 C347.453562,135.653791 353.310306,137.814736 358.987181,140.397606 C361.149684,141.382371 363.080228,142.909612 365.042514,144.294311 C367.350703,145.922553 367.415001,148.363695 367.014567,150.816241 C366.779353,152.253884 365.484456,152.759706 364.40117,151.805893 C360.747623,148.586876 356.162987,147.108507 351.877048,145.153638 C348.598703,143.657349 345.050962,142.684802 341.504848,141.814071 C338.168717,140.99547 334.791892,140.299048 331.534709,139.167668 C331.167645,139.039787 330.785117,138.91272 330.402589,138.880953 C326.830431,138.582836 323.371403,137.632281 319.846451,137.056409 C314.906959,136.248397 309.903984,135.890004 304.990537,134.910941 C304.608009,134.83519 304.220598,134.71464 303.838884,134.726858 C296.084964,134.958998 288.396156,133.568598 280.631656,133.866715 C277.056242,134.003556 273.479201,134.030436 269.910298,134.348916 C266.667764,134.63726 263.408953,134.611195 260.161537,134.760253 C257.579881,134.87836 255.029153,135.561749 252.449126,135.867198 C247.028626,136.509046 241.667539,137.5044 236.284478,138.374317 C232.794523,138.937156 229.511295,140.212708 226.047384,140.731562 C222.747878,141.225981 219.704748,142.596018 216.485817,143.369821 C214.606548,143.822698 212.756578,144.559847 211.027064,145.433021 C207.38247,147.272227 203.409878,148.453294 200.115256,151.014986 C198.786989,152.046994 197.502673,151.528953 196.837726,149.943066 C196.229751,148.491576 196.581351,147.115838 197.399309,145.861464 C198.376789,144.361916 199.695289,143.193068 201.269351,142.358176 C204.710473,140.532003 208.174384,138.80113 211.839326,137.394439 C214.86862,136.232921 218.063948,135.575596 221.005342,134.181938 C221.754934,133.826804 222.616842,133.695664 223.436428,133.50425 C224.196601,133.326683 225.005606,133.307134 225.730781,133.044856 C230.222634,131.419872 234.981442,131.036229 239.592937,129.983043 C243.898409,128.999093 248.290153,128.557618 252.62167,127.72517 C258.355517,126.622298 264.230981,126.333955 270.088539,126.068419 C274.969431,125.846867 279.842998,125.720615 283.372834,125.784148" id="Fill-15" fill="#FFFFFF"></path>
                            <path d="M280.046958,89.8045468 L271.649253,89.8045468 C268.774597,89.8045468 265.952844,90.3861202 263.101792,90.5848652 C259.716828,90.821893 256.427089,91.4979518 253.100725,92.0860414 C249.714947,92.6855345 246.321031,93.1848405 242.954786,93.939094 C238.889411,94.8489224 234.957514,96.1709023 231.0012,97.4081713 C225.911139,98.9997601 221.037572,101.162334 216.378872,103.768011 C214.390542,104.879842 212.628472,106.344364 210.824081,107.735579 C210.18355,108.229184 209.571506,109.028236 208.600536,108.545221 C207.513181,108.005188 207.521319,106.92268 207.695492,105.977827 C208.199289,103.24264 209.219906,100.772989 211.476819,98.9272671 C216.430147,94.8758019 222.103767,92.1723815 228.042714,89.9715252 C230.905975,88.9101944 233.789583,87.8879611 236.7147,87.0180445 C242.627603,85.2586628 248.598292,83.7387524 254.742339,82.9673938 C258.025567,82.5552423 261.241242,81.7227941 264.542375,81.3464819 C271.466942,80.5580182 278.404531,79.9577107 285.366536,80.4089595 C290.356489,80.7331419 295.379811,81.1135267 300.283492,82.0298714 C304.751742,82.8639487 309.317658,83.171026 313.706147,84.3512779 C318.592736,85.665927 323.580247,86.6409178 328.302431,88.55506 C330.829556,89.5789224 333.408769,90.4692022 335.935894,91.5060971 C340.847714,93.5204263 345.390842,96.1285468 349.491214,99.5006952 C351.652903,101.278811 353.030817,103.462562 352.960822,106.383462 C352.946986,106.984584 352.872108,107.562085 352.575853,108.076052 C352.107867,108.888137 351.440478,109.081995 350.605428,108.608754 C350.043844,108.290273 349.5197,107.887896 349.028111,107.46597 C345.632567,104.548329 341.660789,102.594275 337.656456,100.715972 C334.299164,99.1406736 330.747353,98.0622377 327.231353,96.9031635 C325.443239,96.3142594 323.695006,95.5828127 321.879219,95.1079425 C318.740864,94.2877122 315.596811,93.3778838 312.394972,92.9396674 C307.244683,92.2342856 302.177411,91.0752114 296.998636,90.5017833 C291.349433,89.8770399 285.711625,89.6831821 280.046958,89.8045468" id="Fill-17" fill="#FFFFFF"></path>
                            <path d="M264.348181,293.484834 C268.921423,294.316468 273.386417,295.075608 277.827809,295.956928 C280.331331,296.453791 282.816948,296.737247 285.375001,296.550719 C289.721981,296.232239 294.075473,296.000913 298.428151,295.762256 C300.325326,295.658811 300.230914,295.68569 300.119412,297.480097 C299.855712,301.704242 299.073564,305.859967 298.576278,310.052345 C298.209214,313.141038 297.469389,316.188189 296.834556,319.240228 C296.093917,322.802162 295.249914,326.33803 294.064892,329.786744 C293.259956,332.129328 292.356539,334.423855 291.190237,336.609236 C290.637606,337.646131 289.968589,338.599944 289.223881,339.51303 C285.988673,343.481413 279.879623,343.137682 276.685109,340.016409 C274.633295,338.011854 273.265962,335.597591 272.191628,333.001689 C269.894834,327.450676 268.632492,321.61295 267.420612,315.750787 C266.723109,312.372937 266.333256,308.953546 265.719584,305.565922 C265.210089,302.758242 264.991967,299.891101 264.760823,297.040251 C264.668039,295.899097 264.178078,294.792152 264.348181,293.484834" id="Fill-19" fill="#FFFFFF"></path>
                            <path d="M290.010749,22.737973 C290.010749,23.9736128 289.995285,25.2100672 290.015632,26.4457071 C290.035166,27.6479513 289.754374,28.0560301 288.614929,28.4030193 C287.972771,28.5985062 287.339566,28.5276422 286.687641,28.4331569 C282.483904,27.8198168 278.266332,27.8377365 274.044691,28.2205649 C273.460318,28.2735093 272.877574,28.322381 272.302154,28.1537736 C271.480941,27.9126731 270.958424,27.496449 270.973074,26.5116839 C271.012954,23.9744274 270.993421,21.4347272 270.964121,18.8974706 C270.955982,18.1570641 271.308396,17.6789359 271.853702,17.2675989 C272.541438,16.7487442 273.335793,16.4742481 274.148054,16.2339621 C278.778268,14.863925 283.394646,15.1701878 287.984979,16.4082713 C289.686821,16.8668509 290.057141,17.467973 290.005866,19.2249111 C289.993657,19.6150703 289.963543,20.004415 289.960288,20.3945742 C289.952963,21.1757071 289.95866,21.95684 289.95866,22.737973 L290.010749,22.737973 Z" id="Fill-21" fill="#FFFFFF"></path>
                            <path d="M581.001094,403.157444 C581.049114,405.596142 579.395292,407.16411 577.910758,408.72719 C577.039083,409.644349 575.890686,410.330997 574.663342,410.832747 C571.963672,411.934804 569.335625,413.208726 566.50085,413.97194 C565.104217,414.348252 563.740139,414.584465 562.28165,414.386535 C561.129183,414.230145 559.944975,414.208968 558.781114,414.261912 C557.098806,414.338478 555.5866,413.900261 554.119158,413.119943 C552.921114,412.482167 551.668539,411.946207 550.379339,411.336125 C553.0668,409.773045 556.028542,409.089655 558.862503,408.054389 C563.456906,406.373202 568.296289,405.74683 572.978592,404.46802 C575.045869,403.903552 577.102567,403.331753 579.238211,403.091467 C579.807119,403.027119 580.373586,402.778688 581.001094,403.157444" id="Fill-23" fill="#000000"></path>
                            <path d="M339.187055,437.756582 C342.449936,435.65184 345.749441,433.872095 349.546233,433.254682 C350.587197,433.084446 351.605372,433.058381 352.648777,433.20744 C355.933633,433.675794 359.218488,434.146591 362.511483,434.552226 C365.684022,434.9432 368.190799,436.520128 370.60398,438.816284 C359.908666,440.151296 349.56658,438.686774 339.187055,437.756582" id="Fill-25" fill="#000000"></path>
                            <path d="M545.185995,358.004377 C545.250292,359.789009 544.613831,361.276338 543.39544,362.587729 C540.895987,365.278932 538.084001,367.552281 534.886231,369.361349 C532.749773,370.570109 530.340662,370.875558 528.043054,371.551616 C527.48554,371.715337 526.98337,371.543471 526.680604,371.051496 C526.334701,370.490286 526.931281,370.267919 527.180331,369.935592 C531.432087,364.273803 537.135006,360.292388 542.884317,356.363916 C542.991751,356.290609 543.09837,356.214857 543.212315,356.152953 C544.614645,355.392998 545.030542,355.616994 545.18274,357.224058 C545.206342,357.481449 545.185995,357.744542 545.185995,358.004377" id="Fill-27" fill="#000000"></path>
                            <path d="M369.240472,398.735531 C367.347366,398.773814 365.717961,398.570996 364.189477,398.018746 C359.416833,396.294389 354.875333,394.093532 350.756241,391.087922 C350.388364,390.819942 350.00665,390.559293 349.690047,390.236739 C349.001497,389.534616 349.217177,388.696466 350.202797,388.538447 C351.286083,388.366582 352.404366,388.345404 353.494977,388.619086 C354.881844,388.966889 356.254061,389.349718 357.574189,389.918259 C361.15123,391.460161 364.783616,392.879885 368.233691,394.705243 C369.326744,395.283559 370.400264,395.896899 371.311819,396.745637 C371.6447,397.055158 371.975952,397.404591 371.792014,397.929962 C371.621097,398.417865 371.2345,398.627198 370.742097,398.658151 C370.157725,398.694804 369.573352,398.718426 369.240472,398.735531" id="Fill-29" fill="#000000"></path>
                            <path d="M395.548861,368.535987 C393.379033,368.22891 390.934111,367.635119 389.022286,365.756816 C387.353813,364.116355 385.774055,362.390369 384.357074,360.525913 C383.549697,359.462139 383.119963,358.234644 383.167983,356.888228 C383.222513,355.375649 383.83293,354.902408 385.263747,355.232292 C387.197547,355.677839 388.891249,356.475262 390.243933,358.05219 C391.55348,359.576173 393.089288,360.904669 394.521733,362.321949 C395.68478,363.471248 396.711908,364.722364 397.418363,366.212137 C398.265622,367.998398 397.868444,368.619884 395.548861,368.535987" id="Fill-31" fill="#000000"></path>
                            <path d="M561.954141,450.70555 C563.253108,449.941522 564.543122,449.597791 565.859994,449.315964 C567.76368,448.909515 569.647019,448.620357 571.615002,449.028436 C574.916949,449.71264 578.281566,450.077549 581.547702,450.955611 C582.614711,451.242325 583.670324,451.551031 584.656758,452.058482 C585.118233,452.29551 585.639936,452.534981 585.608194,453.162983 C585.574011,453.86755 585.014055,454.098062 584.439449,454.295992 C582.57483,454.937026 580.627194,455.264467 578.691766,455.100747 C573.176041,454.63728 567.821466,453.422003 562.732219,451.177162 C562.509213,451.078604 562.310624,450.924658 561.954141,450.70555" id="Fill-33" fill="#000000"></path>
                            <path d="M277.492812,7.8707898 C277.373171,5.69599845 277.793951,3.61406337 278.409251,1.53945904 C278.683532,0.61415456 279.104312,-0.0692349304 280.097257,0.00570170015 C281.005557,0.074122102 281.458079,0.652437403 281.741312,1.62417002 C282.62194,4.64688563 283.034582,7.70055332 282.974354,10.8421901 C282.949937,12.1079675 282.703329,12.6854683 281.545165,13.0055781 C280.531059,13.2849614 279.494165,13.3036955 278.502034,12.8239382 C277.722329,12.447626 277.331662,11.9475054 277.461884,10.98066 C277.598618,9.96087017 277.492812,8.90849923 277.492812,7.8707898" id="Fill-35" fill="#FFFFFF"></path>
                            <path d="M71.6922167,458.417263 C71.6922167,455.457266 71.6889611,452.613746 71.6954722,449.770227 C71.6971,449.360519 71.6466389,448.982578 71.2592278,448.766728 C70.7717083,448.496304 70.4176667,448.769171 70.0571139,449.080321 C69.0837028,449.919286 68.4098028,450.861695 68.5465361,452.255354 C68.63525,453.15215 68.5636278,454.065236 68.5636278,454.971807 C68.5636278,457.698034 68.5636278,457.698034 71.6922167,458.417263 M108.091769,451.616763 C108.091769,455.432015 108.103164,458.87177 108.081189,462.310709 C108.077119,462.985953 108.335122,463.219723 108.990303,463.218909 C111.001422,463.214836 113.019867,463.367153 115.022033,463.24253 C118.260497,463.039712 117.895875,463.824103 117.921106,460.289864 C117.939011,457.821842 117.944708,455.353006 117.941453,452.884984 C117.941453,452.541253 118.172597,452.094077 117.6102,451.896961 C117.471025,452.010181 117.290342,452.101408 117.187792,452.248023 C115.823714,454.193932 113.636794,454.47413 111.468594,453.414428 C110.443094,452.913493 109.451778,452.342508 108.091769,451.616763 M97.5445833,447.75264 L97.1897278,447.948127 C97.1897278,452.475277 97.2149583,457.002426 97.1693806,461.527947 C97.1604278,462.507011 97.5478389,462.730191 98.426025,462.739151 C100.04485,462.755442 101.663675,462.865403 103.281686,462.953372 C104.532633,463.020978 104.562747,463.033196 104.564375,461.756015 C104.568444,458.31789 104.553794,454.879765 104.520425,451.442454 C104.516356,450.943148 104.652275,450.399858 104.189986,449.827244 C101.629492,450.558691 99.2822361,450.157128 97.5445833,447.75264 M74.0997,398.15355 C74.1574861,394.290241 70.9890167,391.048417 67.0913028,390.983255 C63.3718306,390.921351 60.1301111,394.097198 60.028375,397.902675 C59.9290806,401.642176 63.0804583,404.962195 66.8300444,405.067269 C70.6488111,405.175601 74.0427278,401.947624 74.0997,398.15355 M98.5920583,393.518068 C98.4496278,397.967023 102.091781,401.185226 106.172619,401.309848 C110.471581,401.440987 114.003858,397.861949 113.998975,393.538431 C113.994092,389.138348 110.579014,385.745021 106.198664,385.787377 C101.923306,385.828103 98.6026389,389.201881 98.5920583,393.518068 M84.3937667,413.90246 C87.7331528,414.294249 92.1289667,411.00844 92.0931556,406.259739 C92.0597861,401.893051 88.6088972,398.388949 84.3131917,398.392207 C80.1273611,398.395465 76.6536833,401.874317 76.5918278,406.124527 C76.5299722,410.421165 80.0069056,413.887799 84.3937667,413.90246 M133.503008,412.341824 C135.962581,412.604916 138.176358,412.152038 139.886339,410.193912 C141.252858,408.627573 142.081397,406.860861 142.174994,404.730868 C142.353236,400.638677 139.942497,397.093034 135.995136,395.79549 C132.224389,394.556592 128.037744,396.100938 125.788156,399.561055 C123.756689,402.687216 124.163633,407.180156 126.734708,410.094539 C127.813925,411.316332 129.099056,412.108054 130.777294,412.168329 C131.686408,412.200096 132.594708,412.281549 133.503008,412.341824 M65.903025,456.523484 C65.903025,454.773062 65.8533778,453.340306 65.9193028,451.912437 C65.9697639,450.80142 65.5237528,450.329808 64.4477917,450.032505 C60.6355361,448.977691 59.1037972,445.625091 60.760875,441.967043 C64.4893,433.737046 68.3105083,425.547776 71.9941694,417.299045 C72.7055083,415.704198 73.5543944,414.483219 75.2700722,414.011607 C76.0155944,413.806346 76.2874333,413.205224 75.8918833,412.681482 C74.8566167,411.309001 74.7272083,409.669355 74.3259611,408.111162 C74.0679583,407.107663 73.4925389,406.77615 72.4963389,406.794069 C69.1146306,406.855159 65.7280389,406.953717 62.3495861,406.852715 C59.7427,406.775335 58.0660889,407.816303 57.0129167,410.184137 C54.0283861,416.895853 50.982,423.579875 47.9445667,430.267969 C47.5864556,431.056433 47.3813556,431.86526 47.3984472,432.718071 C47.4277472,434.151641 48.4703389,435.424749 49.7790722,435.684584 C51.0495528,435.935459 52.2370167,435.278949 52.8710361,433.915428 C54.0788472,431.321969 55.2598,428.716292 56.4562167,426.11876 C56.6458528,425.707423 56.82735,425.286312 57.0755861,424.91 C57.2977778,424.572785 57.6453083,424.37404 58.0815528,424.491332 C58.4657083,424.593963 58.5365167,424.937694 58.5617472,425.252916 C58.6089528,425.835304 58.6179056,426.422579 58.6162778,427.006596 C58.5869778,435.081833 58.5536083,443.157069 58.5210528,451.231491 C58.519425,451.751975 58.534075,452.273273 58.5177972,452.794572 C58.5023333,453.307725 58.6822028,453.612358 59.20065,453.814362 C61.3664083,454.659028 63.5142611,455.551751 65.903025,456.523484 M106.400508,403.521294 L106.400508,403.502559 C104.255097,403.502559 102.108872,403.522108 99.9626472,403.496043 C98.2152278,403.474865 96.9732333,404.247038 96.2008528,405.785683 C95.8809944,406.422644 95.5464861,407.070195 95.3544083,407.75114 C94.9303722,409.260462 94.4322722,410.738831 93.6086167,412.073844 C93.04215,412.990188 93.1617917,413.645884 94.1197389,414.13623 C95.53265,414.858717 96.2594528,416.090284 96.8951,417.504306 C100.144144,424.733247 103.468067,431.928793 106.766758,439.135742 C106.982439,439.608983 107.146031,440.11562 107.425194,440.548949 C108.125139,441.634715 109.033439,441.576884 109.578744,440.407221 C110.319383,438.816447 110.998981,437.197978 111.725783,435.600688 C114.443358,429.628564 117.147911,423.650739 119.908622,417.698978 C120.553222,416.307763 120.702164,415.050946 119.987569,413.61819 C118.742319,411.120031 117.650894,408.544491 116.471569,406.011307 C115.719536,404.396912 114.497075,403.487898 112.64385,403.514777 C110.56355,403.5441 108.481622,403.521294 106.400508,403.521294 M82.5429833,461.093804 C82.9100472,460.403083 82.7464556,459.739243 82.7545944,459.101467 C82.7790111,457.277737 82.7098306,455.449935 82.7814528,453.628649 C82.8433083,452.056609 83.7914889,451.339824 85.0416222,451.823654 C85.9653861,452.182046 86.1810667,452.958292 86.178625,453.881153 C86.1721139,456.095856 86.2323417,458.311374 86.2168778,460.526892 C86.2119944,461.243677 86.4358139,461.556456 87.1788944,461.659086 C88.9173611,461.901001 90.6387361,462.26591 92.3999917,462.328629 C93.943125,462.383202 93.957775,462.381573 93.9585889,460.766363 C93.9642861,453.207538 93.9610306,445.648712 93.9626583,438.089887 C93.9626583,437.568589 93.9602167,437.04729 93.9944,436.527621 C94.0057944,436.350054 94.0741611,436.153753 94.309375,436.090219 C94.5991194,436.012839 94.8554944,436.117099 94.9881583,436.328876 C95.1566333,436.597671 95.2054667,436.938144 95.3405722,437.230559 C96.5394306,439.82972 97.7220111,442.435397 98.9583083,445.015824 C99.9618333,447.109162 101.762156,448.021434 104.047556,447.689106 C105.874736,447.42357 106.750481,446.194447 106.366325,444.387008 C106.271914,443.945533 106.091231,443.51872 105.912989,443.100052 C105.202464,441.425382 104.465081,439.7613 103.758625,438.083371 C101.006053,431.549222 98.2160417,425.034623 94.8139861,418.799406 C93.3880528,416.187213 93.4417694,416.146487 90.5077,416.140785 C86.2103667,416.130196 81.9097778,416.234456 77.6173278,416.092728 C75.7453833,416.031638 74.8142944,416.724802 74.0695861,418.379924 C70.4958,426.328094 66.8178361,434.229021 63.1675444,442.142981 C62.8102472,442.917598 62.4887611,443.710949 62.4383,444.555615 C62.36505,445.762746 62.5066667,447.030153 63.7388944,447.589734 C65.6572306,448.46128 67.9629778,448.756139 69.0845167,446.016065 C70.2662833,443.131004 71.7027972,440.348575 73.0774556,437.545782 C73.3590611,436.970725 73.4428917,435.875184 74.3064278,436.103252 C75.1097361,436.315844 74.8020861,437.332375 74.8045278,438.013321 C74.8208056,444.463573 74.8134806,450.91464 74.8142944,457.365706 C74.8142944,457.822657 74.8240611,458.277978 74.8142944,458.734114 C74.8037139,459.258671 75.0128833,459.520134 75.557375,459.673266 C77.8598667,460.318372 80.1477083,461.009907 82.5429833,461.093804 M134.940336,461.883896 C137.583847,461.532834 140.091439,461.193176 142.600658,460.872252 C144.062403,460.68491 144.114492,460.60753 144.046939,459.17396 C143.81905,454.366612 143.596044,449.560079 143.360017,444.753545 C143.325019,444.026171 143.391758,443.315902 143.642436,442.639844 C144.110422,441.382212 144.897453,441.138668 146.038525,441.826944 C146.556158,442.139723 146.892294,442.596674 147.265869,443.051181 C148.335319,444.351983 148.577858,446.007919 149.240364,447.480587 C149.723,448.553321 150.202381,449.584515 151.242531,450.284195 C152.428367,451.080804 153.938944,451.178547 155.037694,450.392527 C156.15435,449.594289 156.524669,448.374125 156.055869,446.925079 C155.916694,446.494193 155.696131,446.091001 155.516261,445.673963 C153.148658,440.18404 150.785939,434.693303 148.414267,429.205824 C146.739283,425.328668 145.039883,421.462915 143.37955,417.580057 C142.634842,415.838595 141.476678,415.002074 139.472883,415.058277 C135.247986,415.176383 131.018206,415.091672 126.790053,415.094116 C124.413497,415.096559 122.765372,416.077252 121.822889,418.384811 C119.245303,424.700666 116.561097,430.974165 113.919214,437.263955 C112.737447,440.07978 111.536961,442.888275 110.378797,445.71306 C109.752917,447.239487 110.097192,449.731944 110.975378,450.502488 C112.952314,452.239878 116.047533,451.518205 117.121053,449.061587 C117.901572,447.274511 118.651978,445.475218 119.439008,443.692215 C119.846767,442.768539 120.282197,441.848936 121.323975,441.220935 C121.771614,443.338709 122.141119,445.30661 122.181,447.336416 C122.272969,452.087561 122.423539,456.837077 122.507369,461.587408 C122.522833,462.45651 122.673403,462.897984 123.694833,462.808386 C126.155219,462.592536 128.623744,462.440219 131.091456,462.33596 C132.074633,462.293604 132.274036,461.820363 132.241481,460.965923 C132.204042,459.992561 132.246364,459.013498 132.302522,458.040136 C132.334264,457.492773 132.564594,456.97066 133.192103,456.947853 C133.723572,456.929933 134.187489,457.215833 134.476419,457.698848 C134.758839,458.169646 134.701867,458.699904 134.731981,459.217944 C134.78,460.052021 134.574086,460.904018 134.940336,461.883896" id="Fill-37" fill="#FFFFFF"></path>
                            <path d="M458.054551,473.987221 C458.054551,473.01223 458.114778,472.032352 458.041528,471.062249 C457.890145,469.051178 456.858134,468.244794 454.930845,467.756077 C450.223312,466.560349 445.409973,465.647263 441.111012,463.184128 C439.873087,462.474674 438.55947,461.913464 437.426537,461.010151 C436.745312,460.466861 436.439289,459.853521 436.506028,458.998266 C436.774612,455.573173 437.775695,452.362301 439.426262,449.369723 C440.253173,447.871805 440.785456,447.796054 442.142209,448.71973 C444.659567,450.434312 447.548873,451.234179 450.406437,452.107354 C451.648431,452.486924 452.944142,452.706847 454.16172,453.147507 C457.167412,454.237346 460.28542,454.458898 463.396917,454.154264 C466.267503,453.873252 468.988334,452.960165 471.072703,450.760124 C473.113123,448.608954 473.479373,446.25741 472.212962,443.589014 C471.089795,441.21955 469.338306,439.416184 467.126156,438.076284 C463.279717,435.746733 459.131326,434.024819 455.029326,432.215751 C449.081426,429.592155 443.964506,425.872202 440.157134,420.562291 C438.395878,418.104858 437.366309,415.268669 437.419212,412.164501 C437.462348,409.564526 437.165278,406.949074 437.720351,404.371091 C438.557028,400.487419 440.308517,397.184505 443.678017,394.878575 C447.40807,392.325028 451.286251,390.135575 455.83182,389.369918 C457.345653,389.114971 457.990253,388.381895 458.039901,386.866057 C458.110709,384.722218 458.240931,382.581637 458.245814,380.430467 C458.252326,377.415896 458.010601,376.944284 461.551017,377.787321 C463.947106,378.356677 466.280526,379.185053 468.661964,379.824457 C469.615028,380.079405 469.875473,380.682156 469.907214,381.536597 C469.962559,383.093161 470.201028,384.634249 470.174984,386.203031 C470.144056,387.993365 470.561581,388.351757 472.309001,388.911338 C476.142417,390.138833 479.956301,391.423345 483.782392,392.671202 C484.537681,392.91719 485.204256,393.313051 485.842345,393.762671 C487.221887,394.736847 487.715917,396.065343 487.265023,397.690328 C486.568334,400.196632 485.858623,402.699679 485.096823,405.18562 C484.573492,406.889614 483.63752,407.30258 481.959281,406.536923 C480.303017,405.782669 478.705353,404.843518 476.950609,404.380866 C472.769662,403.276365 468.793001,401.307649 464.326378,401.376884 C460.615045,401.43553 457.82422,402.923674 456.203767,406.374832 C455.332906,408.229513 455.357323,410.033694 456.455259,411.765382 C457.733878,413.78134 459.468276,415.349308 461.526601,416.532003 C465.870326,419.029348 470.424848,421.116985 474.946001,423.261638 C478.505951,424.950156 481.866498,426.969372 484.605234,429.774609 C489.711573,435.003068 492.42752,441.21059 491.422367,448.694479 C491.240056,450.046597 490.989378,451.391383 490.741142,452.733726 C489.906906,457.252731 486.862148,460.159784 483.31522,462.595224 C479.589237,465.152029 475.424567,466.798192 471.054798,467.924685 C469.781062,468.252125 469.304937,468.83207 469.258545,470.324286 C469.201573,472.081224 469.257731,473.84142 469.234942,475.599988 C469.226803,476.246723 469.20727,476.910564 469.064026,477.535308 C468.819859,478.603969 468.084917,479.234414 466.982098,479.192873 C464.448462,479.094315 461.907501,479.027524 459.417814,478.45491 C458.480214,478.239875 457.927584,477.810618 458.04397,476.715892 C458.139195,475.815838 458.063503,474.897049 458.063503,473.987221 L458.054551,473.987221 Z" id="Fill-39" fill="#000000"></path>
                            <path d="M134.940662,461.883815 C134.574412,460.903937 134.779512,460.05194 134.731492,459.218677 C134.702192,458.699823 134.758351,458.169564 134.476745,457.698767 C134.187001,457.216566 133.723898,456.929852 133.192428,456.947772 C132.56492,456.970578 132.333776,457.492691 132.302034,458.040054 C132.245876,459.014231 132.204367,459.992479 132.241806,460.965841 C132.274362,461.820282 132.074959,462.293523 131.091781,462.335878 C128.623256,462.440952 126.155545,462.592455 123.694345,462.808305 C122.672914,462.897903 122.522345,462.456428 122.507695,461.587326 C122.423051,456.836996 122.273295,452.087479 122.180512,447.336334 C122.141445,445.306529 121.771126,443.338628 121.324301,441.220853 C120.281709,441.848855 119.846278,442.768458 119.43852,443.692133 C118.651489,445.475136 117.901898,447.27443 117.120564,449.061506 C116.047859,451.518124 112.951826,452.239796 110.974889,450.502407 C110.097517,449.731863 109.752428,447.239405 110.378309,445.712979 C111.537287,442.888194 112.736959,440.079699 113.919539,437.263874 C116.561423,430.974084 119.244814,424.701399 121.823214,418.38473 C122.765698,416.07717 124.413009,415.097292 126.789564,415.094849 C131.017717,415.091591 135.248312,415.176302 139.473209,415.058195 C141.477003,415.001993 142.634353,415.838513 143.379876,417.579976 C145.040209,421.462833 146.739609,425.328586 148.414592,429.205742 C150.785451,434.693221 153.148984,440.183959 155.515773,445.674696 C155.695642,446.09092 155.91702,446.494112 156.056195,446.924997 C156.524995,448.374044 156.154676,449.594207 155.037206,450.39326 C153.938456,451.178466 152.427878,451.080722 151.242042,450.284113 C150.202706,449.584433 149.723326,448.55324 149.240689,447.480506 C148.57737,446.007838 148.335645,444.352716 147.266195,443.051099 C146.89262,442.596592 146.55567,442.139642 146.038851,441.826863 C144.896964,441.138586 144.110748,441.38213 143.642762,442.639762 C143.39127,443.315821 143.324531,444.02609 143.360342,444.753464 C143.595556,449.559997 143.818562,454.36653 144.046451,459.173878 C144.114817,460.608263 144.062728,460.684829 142.600984,460.87217 C140.091764,461.193095 137.584173,461.532753 134.940662,461.883815" id="Fill-41" fill="#F8ED3F"></path>
                            <path d="M82.5425764,461.093966 C80.1473014,461.009255 77.8594597,460.318535 75.5569681,459.673429 C75.0132903,459.520297 74.8033069,459.258834 74.8138875,458.734277 C74.8236542,458.278141 74.8138875,457.822005 74.8138875,457.365869 C74.8138875,450.914803 74.8203986,444.463736 74.8041208,438.013484 C74.8024931,437.332538 75.1101431,436.316007 74.3068347,436.103415 C73.4432986,435.875347 73.3594681,436.970888 73.0770486,437.545945 C71.7023903,440.348738 70.2666903,443.131167 69.0849236,446.016228 C67.9625708,448.756302 65.6568236,448.461443 63.7384875,447.589897 C62.5070736,447.029501 62.3646431,445.762909 62.4378931,444.555778 C62.4891681,443.711112 62.8098403,442.917761 63.1671375,442.14233 C66.8174292,434.229184 70.4953931,426.327443 74.0699931,418.380087 C74.8138875,416.724965 75.7449764,416.031801 77.6177347,416.092891 C81.9101847,416.234619 86.2107736,416.130359 90.5081069,416.140948 C93.4413625,416.14665 93.3876458,416.187376 94.8135792,418.799569 C98.2156347,425.033971 101.00646,431.549385 103.758218,438.083534 C104.465488,439.761463 105.202057,441.425545 105.913396,443.100215 C106.090824,443.518883 106.271507,443.945696 106.365918,444.38717 C106.750888,446.194609 105.874329,447.423733 104.047149,447.689269 C101.761749,448.021597 99.9622403,447.109325 98.9587153,445.015987 C97.7216042,442.43556 96.5398375,439.829883 95.3401653,437.230722 C95.2050597,436.938306 95.1562264,436.597834 94.9885653,436.329039 C94.8559014,436.117262 94.5987125,436.013002 94.3097819,436.090382 C94.0737542,436.153915 94.0053875,436.350217 93.9939931,436.527784 C93.9606236,437.047453 93.9622514,437.568752 93.9622514,438.09005 C93.9606236,445.648875 93.9646931,453.206886 93.9589958,460.766526 C93.9573681,462.381736 93.9427181,462.383365 92.3995847,462.328792 C90.6383292,462.265259 88.9169542,461.901164 87.1784875,461.659249 C86.4362208,461.555804 86.2115875,461.24384 86.2172847,460.527055 C86.2319347,458.311537 86.1717069,456.096019 86.1782181,453.881316 C86.1814736,452.958455 85.9657931,452.182209 85.0420292,451.823817 C83.7918958,451.339172 82.8429014,452.056772 82.7810458,453.628812 C82.7094236,455.450098 82.7786042,457.277085 82.7550014,459.10163 C82.7460486,459.739405 82.9096403,460.402432 82.5425764,461.093966" id="Fill-43" fill="#E91A8C"></path>
                            <path d="M106.400915,403.520886 C108.482029,403.520886 110.563143,403.543693 112.643443,403.51437 C114.497482,403.488305 115.719129,404.396504 116.471976,406.011715 C117.650488,408.544084 118.742726,411.119623 119.987976,413.617783 C120.701757,415.050538 120.553629,416.307356 119.908215,417.698571 C117.147504,423.651146 114.443765,429.628971 111.72619,435.601095 C110.999388,437.198385 110.318976,438.816039 109.579151,440.406814 C109.033846,441.577291 108.125546,441.635123 107.424788,440.548542 C107.146438,440.116027 106.982846,439.60939 106.766351,439.136149 C103.468474,431.9292 100.144551,424.733654 96.8946931,417.504713 C96.2598597,416.090691 95.5322431,414.859124 94.1201458,414.135823 C93.1621986,413.646291 93.0425569,412.990596 93.6082097,412.073436 C94.4318653,410.738424 94.9299653,409.260869 95.3548153,407.750733 C95.5460792,407.069787 95.8805875,406.423052 96.2004458,405.785276 C96.9736403,404.247446 98.2156347,403.474458 99.9630542,403.49645 C102.108465,403.522515 104.25469,403.502967 106.400915,403.502967 L106.400915,403.520886 Z" id="Fill-45" fill="#2EACDF"></path>
                            <path d="M65.9027808,456.523321 C63.5140169,455.552403 61.3669781,454.658865 59.2004058,453.814199 C58.6819586,453.612196 58.5020892,453.307562 58.5183669,452.794409 C58.5338308,452.273111 58.5191808,451.752627 58.5216225,451.231328 C58.5533642,443.156906 58.5867336,435.08167 58.6160336,427.007248 C58.6176614,426.422417 58.6087086,425.835141 58.5615031,425.252753 C58.5362725,424.938345 58.4654642,424.5938 58.0813086,424.491169 C57.6450642,424.373877 57.2983475,424.572622 57.0753419,424.909837 C56.8279197,425.286149 56.6456086,425.70726 56.4567864,426.118597 C55.2595558,428.716129 54.0786031,431.322621 52.8716058,433.915265 C52.2367725,435.278786 51.0493086,435.936111 49.7788281,435.684421 C48.4709086,435.425401 47.4275031,434.151478 47.3990169,432.717908 C47.3819253,431.865911 47.5862114,431.05627 47.9443225,430.268621 C50.9817558,423.580526 54.0281419,416.896505 57.0126725,410.183974 C58.0658447,407.81614 59.7432697,406.775172 62.3493419,406.853367 C65.7286086,406.954369 69.1143864,406.854996 72.4960947,406.793906 C73.4931086,406.775987 74.0677142,407.1075 74.3265308,408.110999 C74.7269642,409.670007 74.8563725,411.308838 75.8916392,412.681319 C76.2871892,413.205061 76.0161642,413.806998 75.2698281,414.012259 C73.5541503,414.483871 72.7052642,415.704035 71.9939253,417.298882 C68.3102642,425.548427 64.4898697,433.736883 60.7614447,441.96688 C59.1035531,445.624928 60.6352919,448.977528 64.4475475,450.032342 C65.5235086,450.329645 65.9703336,450.802072 65.9190586,451.912274 C65.8531336,453.340143 65.9027808,454.773713 65.9027808,456.523321" id="Fill-47" fill="#17A554"></path>
                            <path d="M133.503253,412.341498 C132.594139,412.282037 131.686653,412.19977 130.776725,412.168003 C129.0993,412.108543 127.813355,411.316006 126.734953,410.094213 C124.163064,407.17983 123.756119,402.68689 125.7884,399.561544 C128.037989,396.101427 132.223819,394.556266 135.99538,395.795979 C139.942741,397.092708 142.35348,400.639166 142.174425,404.730543 C142.081641,406.860535 141.253103,408.627247 139.885769,410.193586 C138.175789,412.152527 135.962011,412.604591 133.503253,412.341498" id="Fill-49" fill="#F8ED3F"></path>
                            <path d="M84.3940922,413.902216 C80.0072311,413.887555 76.5294839,410.421735 76.5921533,406.124283 C76.653195,401.874072 80.1276867,398.395221 84.3135172,398.391963 C88.6092228,398.388704 92.0601117,401.893621 92.0926672,406.259494 C92.1292922,411.008196 87.7334783,414.294004 84.3940922,413.902216" id="Fill-51" fill="#E91A8C"></path>
                            <path d="M98.5923025,393.518312 C98.6028831,389.202125 101.922736,385.828348 106.198908,385.787621 C110.579258,385.745266 113.993522,389.138592 113.999219,393.537861 C114.004103,397.862193 110.471825,401.441232 106.17205,401.309278 C102.091211,401.18547 98.4498719,397.967267 98.5923025,393.518312" id="Fill-53" fill="#2EACDF"></path>
                            <path d="M74.0997,398.153306 C74.0427278,401.94738 70.6488111,405.175357 66.8300444,405.067024 C63.0804583,404.96195 59.9290806,401.641932 60.028375,397.902431 C60.1301111,394.097768 63.3718306,390.921106 67.0913028,390.983011 C70.9890167,391.048173 74.1574861,394.289997 74.0997,398.153306" id="Fill-55" fill="#17A554"></path>
                            <path d="M97.5446647,447.752884 C99.2823175,450.157372 101.629573,450.558121 104.190067,449.827488 C104.651543,450.400102 104.515623,450.943393 104.520506,451.441884 C104.553876,454.880009 104.568526,458.318134 104.563643,461.755445 C104.562829,463.03344 104.532715,463.021223 103.280954,462.953617 C101.663756,462.865648 100.044931,462.755686 98.4261064,462.738581 C97.5471064,462.730436 97.1596953,462.50644 97.1694619,461.528192 C97.2150397,457.001856 97.1889953,452.475521 97.1889953,447.948371 L97.5446647,447.752884 Z" id="Fill-57" fill="#2EACDF"></path>
                            <path d="M108.091444,451.617089 C109.451452,452.342834 110.443583,452.913819 111.468269,453.414754 C113.636469,454.474455 115.823388,454.194258 117.187466,452.247534 C117.290016,452.101734 117.470699,452.009692 117.610688,451.897287 C118.172272,452.094403 117.941127,452.541579 117.941941,452.88531 C117.944383,455.353332 117.938686,457.821353 117.92078,460.289375 C117.895549,463.823615 118.260986,463.039224 115.022522,463.242041 C113.019541,463.367479 111.001097,463.214347 108.989977,463.21842 C108.334797,463.220049 108.076794,462.986279 108.080863,462.311035 C108.103652,458.871281 108.091444,455.432341 108.091444,451.617089" id="Fill-59" fill="#2EACDF"></path>
                            <path d="M71.6922167,458.417263 C68.5636278,457.698034 68.5636278,457.698034 68.5636278,454.971807 C68.5636278,454.065236 68.63525,453.15215 68.5465361,452.255354 C68.4098028,450.861695 69.0837028,449.919286 70.0571139,449.080321 C70.4176667,448.769171 70.7717083,448.496304 71.2592278,448.766728 C71.6466389,448.982578 71.6971,449.360519 71.6954722,449.770227 C71.6889611,452.613746 71.6922167,455.457266 71.6922167,458.417263" id="Fill-61" fill="#17A554"></path>
                        </g>
                    </g>
                </g>
            </g>
        </g>
    </g>
</svg>