<?xml version="1.0" encoding="utf-8"?>
<!-- Generator: Adobe Illustrator 16.0.0, SVG Export Plug-In . SVG Version: 6.00 Build 0)  -->
<!DOCTYPE svg PUBLIC "-//W3C//DTD SVG 1.1//EN" "http://www.w3.org/Graphics/SVG/1.1/DTD/svg11.dtd">
<svg version="1.1" id="Layer_1" xmlns="http://www.w3.org/2000/svg" xmlns:xlink="http://www.w3.org/1999/xlink" x="0px" y="0px"
	 width="586px" height="527px" viewBox="0 0 586 527" enable-background="new 0 0 586 527" xml:space="preserve">
<title>Page 1 Copy</title>
<desc>Created with Sketch.</desc>
<g id="Page-1">
	<g id="Index-v1.0" transform="translate(-760.000000, -178.000000)">
		<g id="body">
			<g id="header">
				<g id="Group-20" transform="translate(50.000000, 178.000000)">
					<g id="Page-1-Copy" transform="translate(710.000000, 0.000000)">
						<path id="Fill-1" fill="#FFFFFF" d="M561.954,450.705c0.356,0.22,0.555,0.373,0.778,0.472
							c5.089,2.245,10.443,3.461,15.959,3.924c1.936,0.164,3.884-0.163,5.748-0.805c0.574-0.198,1.135-0.429,1.169-1.133
							c0.031-0.628-0.49-0.867-0.952-1.104c-0.986-0.508-2.042-0.816-3.108-1.103c-3.267-0.879-6.631-1.243-9.933-1.928
							c-1.968-0.408-3.852-0.119-5.755,0.288C564.543,449.598,563.253,449.941,561.954,450.705 M395.549,368.536
							c2.319,0.083,2.717-0.538,1.869-2.323c-0.706-1.49-1.733-2.742-2.896-3.891c-1.433-1.418-2.968-2.746-4.277-4.27
							c-1.353-1.578-3.047-2.375-4.98-2.82c-1.431-0.33-2.041,0.143-2.096,1.656c-0.049,1.346,0.382,2.573,1.189,3.637
							c1.417,1.865,2.996,3.591,4.665,5.231C390.935,367.635,393.379,368.229,395.549,368.536 M369.24,398.735
							c0.333-0.017,0.918-0.041,1.501-0.076c0.493-0.032,0.88-0.24,1.051-0.729c0.185-0.525-0.147-0.874-0.479-1.185
							c-0.912-0.849-1.985-1.462-3.079-2.04c-3.449-1.825-7.082-3.244-10.66-4.787c-1.319-0.568-2.691-0.951-4.078-1.299
							c-1.091-0.273-2.209-0.253-3.292-0.08c-0.985,0.157-1.201,0.996-0.513,1.698c0.316,0.321,0.698,0.583,1.065,0.851
							c4.12,3.006,8.66,5.206,13.434,6.931C365.718,398.571,367.348,398.773,369.24,398.735 M545.186,358.004
							c0-0.26,0.021-0.521-0.002-0.78c-0.153-1.606-0.569-1.831-1.971-1.071c-0.115,0.062-0.222,0.139-0.329,0.212
							c-5.748,3.928-11.452,7.91-15.704,13.571c-0.248,0.332-0.846,0.555-0.5,1.115c0.304,0.492,0.806,0.664,1.363,0.5
							c2.297-0.676,4.706-0.98,6.843-2.189c3.198-1.81,6.011-4.082,8.509-6.773C544.613,361.275,545.251,359.789,545.186,358.004
							 M339.188,437.757c10.379,0.93,20.721,2.395,31.416,1.059c-2.413-2.295-4.92-3.873-8.092-4.263
							c-3.293-0.405-6.578-0.877-9.863-1.345c-1.043-0.149-2.062-0.124-3.104,0.046C345.749,433.872,342.45,435.652,339.188,437.757
							 M581.001,403.157c-0.628-0.379-1.193-0.13-1.763-0.065c-2.136,0.24-4.192,0.812-6.26,1.376
							c-4.683,1.279-9.521,1.905-14.116,3.587c-2.833,1.035-5.796,1.719-8.483,3.281c1.289,0.61,2.542,1.146,3.74,1.784
							c1.468,0.78,2.979,1.219,4.662,1.142c1.163-0.053,2.348-0.031,3.5,0.125c1.459,0.197,2.822-0.038,4.22-0.415
							c2.834-0.763,5.463-2.037,8.162-3.139c1.228-0.502,2.376-1.188,3.247-2.105C579.396,407.164,581.049,405.596,581.001,403.157
							 M283.373,125.784c-3.53-0.063-8.403,0.062-13.284,0.284c-5.858,0.266-11.733,0.555-17.467,1.658
							c-4.333,0.832-8.724,1.274-13.029,2.258c-4.612,1.053-9.371,1.437-13.862,3.062c-0.725,0.263-1.535,0.282-2.294,0.459
							c-0.82,0.192-1.682,0.323-2.432,0.678c-2.941,1.394-6.136,2.05-9.166,3.212c-3.665,1.407-7.129,3.138-10.571,4.963
							c-1.573,0.835-2.892,2.005-3.869,3.504c-0.818,1.254-1.17,2.63-0.562,4.082c0.664,1.586,1.949,2.103,3.277,1.071
							c3.295-2.561,7.268-3.742,10.913-5.582c1.729-0.873,3.58-1.611,5.458-2.063c3.219-0.774,6.262-2.144,9.562-2.638
							c3.464-0.519,6.748-1.794,10.236-2.358c5.384-0.869,10.745-1.865,16.166-2.507c2.58-0.305,5.13-0.989,7.712-1.107
							c3.247-0.148,6.506-0.122,9.749-0.412c3.569-0.317,7.146-0.344,10.721-0.481c7.765-0.299,15.453,1.091,23.206,0.859
							c0.383-0.012,0.771,0.109,1.152,0.185c4.914,0.979,9.917,1.337,14.856,2.146c3.524,0.576,6.983,1.526,10.556,1.824
							c0.383,0.032,0.765,0.16,1.133,0.288c3.257,1.131,6.633,1.828,9.97,2.646c3.546,0.871,7.094,1.843,10.372,3.339
							c4.286,1.955,8.871,3.433,12.524,6.652c1.083,0.954,2.378,0.448,2.612-0.99c0.401-2.453,0.336-4.894-1.971-6.522
							c-1.963-1.384-3.894-2.911-6.056-3.896c-5.677-2.583-11.533-4.744-17.525-6.497c-3.552-1.04-7.131-1.979-10.791-2.598
							c-4.278-0.724-8.434-2.119-12.825-2.255c-1.085-0.034-2.158-0.446-3.233-0.697c-0.947-0.222-1.88-0.574-2.84-0.672
							c-2.458-0.25-4.911-0.574-7.367-0.816C297.863,126.216,291.305,125.772,283.373,125.784"/>
						<path id="Fill-3" fill="#FFFFFF" d="M273.285,271.748c-0.483,4.931,4.565,9.269,8.97,9.334
							c5.031,0.074,9.396-4.479,9.435-9.172c0.04-4.916-4.441-9.36-9.277-9.346C277.48,262.579,272.861,267.158,273.285,271.748
							 M111.18,465.55c8.501-0.04,16.365-0.407,24.189-1.346c2.579-0.31,5.177-0.459,7.729-1.041
							c5.198-1.185,10.407-2.328,15.631-3.387c3.267-0.662,6.415-1.627,9.475-2.941c1.473-0.632,2.177-1.14,1.319-2.946
							c-0.332-0.7-0.47-1.487-0.767-2.206c-3.329-8.049-6.126-16.306-9.786-24.229c-3.572-7.736-6.033-15.921-9.07-23.877
							c-3.642-9.536-7.394-19.028-11.026-28.567c-2.128-5.59-4.375-11.135-6.547-16.709c-3.094-7.936-6.167-15.88-9.253-23.819
							c-2.991-7.694-6.305-15.257-9.208-22.989c-3.177-8.461-6.521-16.857-9.825-25.27c-0.389-0.99-0.605-2.456-1.897-2.463
							c-1.393-0.008-1.61,1.49-2.041,2.547c-1.351,3.312-2.657,6.641-4.022,9.945c-4.222,10.217-8.57,20.381-12.665,30.647
							c-4.313,10.813-8.965,21.481-13.397,32.245c-3.589,8.717-7.268,17.398-10.898,26.099c-1.652,3.96-3.009,8.039-4.627,12.005
							c-6.326,15.488-12.809,30.912-19.237,46.358c-0.858,2.062-0.609,2.834,1.351,3.91c0.397,0.218,0.822,0.393,1.245,0.555
							c7.464,2.882,14.81,6.043,22.092,9.352c1.248,0.566,2.532,1.003,3.83,1.436c5.934,1.981,12.004,3.397,18.151,4.514
							c3.069,0.558,6.117,1.4,9.211,1.622C98.01,465.488,104.895,466.164,111.18,465.55 M479.412,487.801
							c2.213,0,4.43,0.073,6.639-0.014c7.543-0.299,15.035-1.214,22.549-1.885c6.444-0.576,12.63-2.43,19.004-3.289
							c1.243-0.167,2.076-1.282,1.91-2.329c-0.09-0.567-0.356-1.11-0.567-1.653c-2.198-5.633-4.414-11.259-6.602-16.895
							c-6.186-15.942-12.364-31.886-18.54-47.831c-2.536-6.547-5.05-13.104-7.589-19.648c-3.08-7.94-6.186-15.872-9.263-23.813
							c-4.698-12.123-9.338-24.27-14.085-36.374c-2.99-7.626-6.041-15.229-8.87-22.917c-0.284-0.771-0.661-1.516-1.499-1.641
							c-0.965-0.146-1.268,0.74-1.625,1.426c-0.211,0.402-0.372,0.83-0.549,1.25c-1.683,4.019-3.386,8.027-5.044,12.057
							c-5.591,13.588-11.171,27.182-16.747,40.776c-3.974,9.686-7.922,19.381-11.904,29.062c-2.598,6.314-5.262,12.602-7.853,18.918
							c-3.282,7.999-6.503,16.022-9.783,24.023c-4.438,10.829-8.897,21.65-13.376,32.463c-0.835,2.015-0.1,2.845,1.294,3.744
							c0.484,0.314,1.043,0.524,1.59,0.724c7.636,2.777,15.411,5.109,23.298,7.03c9.673,2.356,19.509,3.899,29.377,5.142
							C460.541,487.304,469.966,487.832,479.412,487.801 M111.248,267.778c-0.11,0.952,0.422,1.733,0.757,2.549
							c7.23,17.628,14.487,35.247,21.719,52.874c7.65,18.65,15.274,37.313,22.921,55.965c6.884,16.788,13.782,33.568,20.675,50.352
							c2.447,5.954,4.898,11.907,7.354,17.858c0.198,0.479,0.365,1.013,0.7,1.383c2.302,2.552,2.383,2.667,5.261,1.54
							c3.628-1.423,7.335-2.641,11.003-3.964c0.896-0.323,1.687-0.546,2.456,0.356c0.742,0.868,0.252,1.651-0.083,2.344
							c-1.024,2.104-2.2,4.134-3.271,6.218c-2.623,5.104-5.497,10.053-9.25,14.421c-5.395,6.279-11.804,11.386-18.869,15.619
							c-7.734,4.635-16.059,7.927-24.751,10.334c-4.698,1.301-9.437,2.374-14.235,3.185c-3.002,0.506-6.043,0.729-9.068,1.065
							c-5.893,0.653-11.795,0.832-17.703,0.688c-5.699-0.138-11.375-0.467-17.007-1.665c-6.477-1.379-12.975-2.65-19.317-4.559
							c-4.098-1.233-8.137-2.678-12.092-4.332c-7.934-3.318-15.663-7.058-22.772-11.928c-6.83-4.679-13.251-9.886-18.71-16.151
							c-5.28-6.061-9.737-12.688-13.071-20.038c-0.967-2.132-1.994-4.236-2.989-6.355c-0.221-0.471-0.445-0.941-0.628-1.428
							c-0.254-0.672-0.514-1.344,0.118-1.99c0.701-0.719,1.471-0.434,2.158-0.11c2.059,0.97,4.089,2.002,6.12,3.028
							c1.916,0.971,3.808,1.986,5.729,2.941c2.215,1.104,3.474,0.667,4.53-1.623c0.708-1.533,1.328-3.109,1.938-4.688
							c3.101-8.012,6.869-15.731,10.376-23.564c5.527-12.344,11.144-24.649,16.729-36.967c5.319-11.727,10.659-23.443,15.968-35.174
							c5.819-12.855,11.604-25.726,17.421-38.582c4.557-10.071,9.141-20.132,13.712-30.197c0.134-0.297,0.297-0.583,0.397-0.891
							c0.229-0.701,0.191-1.214-0.712-1.452c-3.642-0.957-7.262-2-10.905-2.953c-1.073-0.281-1.781,0.32-2.436,1.19
							c-2.249,2.993-5.075,5.223-8.789,6.12c-10.043,2.424-18.203-3.6-20.016-12.016c-2.108-9.782,4.452-18.321,13.529-19.509
							c7.889-1.033,14.292,3.274,17.03,9.666c0.154,0.358,0.335,0.711,0.439,1.084c0.208,0.759,0.692,0.967,1.444,0.953
							c8.853-0.171,17.708-0.055,26.56-0.322c4.23-0.128,8.464-0.114,12.695-0.164c14.973-0.173,29.948-0.257,44.919-0.554
							c9.374-0.185,18.75-0.114,28.122-0.355c10.675-0.274,21.355-0.153,32.027-0.423c9.374-0.237,18.749-0.192,28.123-0.343
							c6.118-0.098,12.239-0.117,18.354-0.324c3.805-0.13,7.523,0.375,11.252,0.954c8.224,1.275,16.451,2.532,24.674,3.805
							c7.968,1.233,15.932,2.485,23.898,3.716c7.968,1.23,15.939,2.438,23.907,3.667c8.996,1.387,17.988,2.795,26.985,4.178
							c8.932,1.371,17.87,2.709,26.802,4.082c7.969,1.225,15.933,2.485,23.899,3.715c7.967,1.23,15.938,2.445,23.907,3.662
							c6.612,1.01,13.225,2.014,19.838,3.018c0.256,0.039,0.524,0.02,0.773,0.084c1.492,0.383,2.334-0.021,3.214-1.5
							c3.223-5.419,8.015-8.135,14.463-8.371c7.011-0.256,15.479,4.926,16.715,14.459c1.279,9.861-5.4,17.617-13.9,18.828
							c-7.505,1.07-13.551-1.752-17.458-8.416c-0.547-0.933-1.094-1.257-2.134-1.234c-3.188,0.066-6.379,0.016-9.569,0.043
							c-1.543,0.014-1.626,0.132-1.05,1.566c2.397,5.975,4.813,11.941,7.232,17.907c5.67,13.983,11.345,27.963,17.018,41.944
							c5.256,12.957,10.51,25.914,15.765,38.871c6.794,16.754,13.586,33.509,20.384,50.26c4.278,10.547,8.566,21.089,12.851,31.633
							c0.295,0.726,0.681,1.362,1.239,1.95c0.985,1.035,2.003,1.252,3.336,0.746c3.4-1.292,6.828-2.507,10.248-3.746
							c0.792-0.286,1.563-0.626,2.416-0.736c1.125-0.146,1.921,0.487,1.843,1.576c-0.026,0.38-0.134,0.78-0.307,1.119
							c-2.636,5.153-4.881,10.517-8.209,15.297c-4.769,6.852-10.603,12.626-17.415,17.446c-7.933,5.611-16.598,9.701-25.812,12.68
							c-4.76,1.538-9.593,2.859-14.493,3.805c-5.146,0.993-10.337,1.813-15.62,1.874c-2.713,0.031-5.418,0.601-8.131,0.661
							c-5.322,0.118-10.643,0.302-15.949-0.6c-2.413-0.409-4.908-0.333-7.331-0.879c-5.061-1.142-10.16-2.113-15.193-3.363
							c-5.359-1.33-10.576-3.129-15.695-5.229c-4.271-1.751-8.521-3.544-12.636-5.637c-8.095-4.118-15.612-9.104-22.407-15.145
							c-6.052-5.381-11.563-11.235-15.862-18.164c-2.098-3.383-3.808-6.962-5.571-10.518c-1.041-2.097-2.038-4.217-3.058-6.324
							c-0.255-0.527-0.567-1.028-0.631-1.629c-0.121-1.139,0.704-1.904,1.793-1.557c0.861,0.275,1.708,0.648,2.495,1.095
							c3.4,1.926,6.955,3.544,10.431,5.319c2.081,1.062,3.258,0.701,4.228-1.456c1.519-3.378,2.983-6.787,4.313-10.245
							c2.058-5.346,4.512-10.516,6.854-15.734c4.579-10.204,9.197-20.391,13.806-30.581c3.484-7.703,6.98-15.401,10.471-23.101
							c4.913-10.838,9.828-21.676,14.74-32.516c5.26-11.609,10.522-23.219,15.773-34.832c3.35-7.406,6.683-14.818,10.019-22.232
							c0.154-0.344,0.442-0.664,0.235-1.197c-0.66-0.356-1.447-0.179-2.196-0.178c-25.979,0.037-51.957,0.09-77.937,0.135
							c-26.239,0.046-52.479,0.086-78.718,0.137c-2.343,0.006-4.689,0-7.027,0.127c-4.848,0.266-9.597-0.528-14.359-1.214
							c-6.885-0.991-13.771-1.968-20.657-2.952c-6.886-0.984-13.771-1.977-20.657-2.955c-6.888-0.979-13.777-1.942-20.666-2.922
							c-6.887-0.98-13.771-1.975-20.658-2.957c-6.758-0.965-13.518-1.924-20.276-2.881c-6.824-0.967-13.649-1.923-20.473-2.893
							c-6.952-0.988-13.905-1.977-20.854-2.986c-5.791-0.842-11.577-1.715-17.366-2.57
							C112.703,267.697,112.005,267.435,111.248,267.778"/>
						<path id="Fill-5" fill="#FFFFFF" d="M338.842,173.937h-0.016c0,3.647,0.038,7.295-0.014,10.942
							c-0.034,2.421,1.315,3.839,3.265,4.886c0.8,0.429,1.646,0.403,2.439,0.017c2.018-0.983,3.384-2.563,3.408-4.846
							c0.077-7.294,0.048-14.589,0.012-21.883c-0.01-1.962-1.8-4.053-3.837-4.711c-1.373-0.444-3.245,0.456-4.477,2.094
							c-0.669,0.891-0.789,1.89-0.786,2.951C338.848,166.902,338.842,170.42,338.842,173.937L338.842,173.937z M214.095,173.999
							h0.02c0,3.708-0.025,7.418,0.009,11.126c0.021,2.41,1.349,4.171,3.487,4.858c0.526,0.168,0.991,0.166,1.512,0.002
							c2.152-0.676,3.9-2.815,3.912-5.074c0.038-7.157,0.016-14.314,0.014-21.472c0-1.672-0.74-3.015-1.966-4.082
							c-2.552-2.221-6.217-0.968-6.913,2.354c-0.092,0.438-0.071,0.903-0.072,1.356
							C214.092,166.711,214.095,170.355,214.095,173.999L214.095,173.999z M234.952,167.535h0.021c0,3.647-0.003,7.293,0.003,10.941
							c0.001,0.715-0.032,1.441,0.072,2.144c0.296,1.986,2.01,3.783,3.761,4.023c1.461,0.202,3.254-0.974,4.15-2.746
							c0.416-0.821,0.653-1.689,0.652-2.625c-0.001-7.95,0.017-15.898,0.002-23.849c-0.004-2.064-1.044-3.586-2.745-4.664
							c-1.226-0.777-2.467-0.717-3.645,0.141c-1.595,1.163-2.298,2.742-2.283,4.714
							C234.974,159.589,234.952,163.562,234.952,167.535L234.952,167.535z M306.137,163.054h-0.007
							c0-4.039,0.029-8.079-0.014-12.118c-0.021-1.999-1.296-3.644-3.139-4.267c-1.684-0.569-3.591,0.084-4.862,1.628
							c-0.796,0.968-0.958,2.077-0.954,3.289c0.022,7.752,0.011,15.505,0.012,23.259c0,0.391-0.041,0.789,0.015,1.171
							c0.279,1.931,1.428,3.167,3.214,3.816c1.757,0.638,3.187-0.003,4.379-1.3c0.97-1.053,1.374-2.314,1.365-3.751
							C306.12,170.872,306.137,166.963,306.137,163.054L306.137,163.054z M276.014,161.627h-0.007c0,3.775,0.006,7.55-0.001,11.325
							c-0.004,1.903,1.062,3.176,2.537,4.123c1.531,0.983,3.139,0.741,4.609-0.169c1.559-0.966,2.196-2.418,2.176-4.29
							c-0.064-6.176-0.028-12.351-0.052-18.528c-0.005-1.429,0.225-2.853,0.022-4.286c-0.251-1.786-1.091-3.175-2.623-4.129
							c-1.015-0.632-2.1-0.726-3.152-0.161c-2.135,1.144-3.555,2.758-3.521,5.377C276.049,154.469,276.014,158.049,276.014,161.627
							L276.014,161.627z M264.469,163.438h-0.026c0-4.039-0.006-8.076,0.002-12.114c0.005-1.935-1.051-3.596-2.818-4.258
							c-1.778-0.667-3.329-0.199-4.637,1.116c-1.163,1.17-1.605,2.597-1.595,4.253c0.037,6.644,0.015,13.288,0.015,19.933
							c0,1.173-0.068,2.35,0.014,3.516c0.176,2.498,2.423,4.586,4.775,4.521c2.409-0.067,4.292-2.237,4.276-4.855
							C264.451,171.513,264.469,167.475,264.469,163.438L264.469,163.438z M318.106,167.501c0,3.907,0.028,7.813-0.012,11.72
							c-0.02,1.825,0.612,3.304,2.01,4.451c1.452,1.192,2.898,1.293,4.485,0.293c1.654-1.042,2.56-2.505,2.559-4.525
							c-0.005-7.943,0.02-15.887,0.043-23.831c0.007-2.183-1.113-3.678-2.881-4.763c-1.364-0.837-2.731-0.745-4.015,0.197
							c-1.526,1.12-2.22,2.633-2.201,4.542C318.134,159.557,318.105,163.529,318.106,167.501L318.106,167.501z M359.826,177.165
							c0,6.384,0.024,12.769-0.01,19.153c-0.017,2.909,1.317,4.402,4.185,4.43c5.534,0.053,11.049,0.562,16.576,0.748
							c0.737,0.025,1.451,0.104,1.997,0.632c1.271,1.231,2.225,2.721,3.157,4.2c0.536,0.849,0.035,1.855-0.942,2.2
							c-0.416,0.146-0.896,0.157-1.346,0.156c-7.682-0.011-15.363-0.006-23.044-0.065c-2.884-0.023-5.594-0.671-8.232-2.007
							c-2.942-1.49-5.968-2.876-9.156-3.822c-5.496-1.63-10.679-4.069-15.981-6.198c-0.964-0.387-1.946-0.729-2.929-1.067
							c-2.578-0.889-5.169-1.722-7.675-2.834c-4.037-1.792-8.199-3.262-12.4-4.649c-3.566-1.178-6.965-2.864-10.447-4.299
							c-3.727-1.534-7.648-2.542-11.335-4.188c-1.085-0.484-2.194-0.358-3.221,0.135c-3.408,1.639-7.071,2.595-10.566,4.009
							c-5.171,2.092-10.31,4.292-15.639,5.976c-3.54,1.118-6.86,2.771-10.284,4.169c-0.661,0.27-1.307,0.61-1.995,0.774
							c-5.285,1.255-10.133,3.65-15.099,5.741c-2.396,1.008-4.894,1.766-7.362,2.542c-3.306,1.04-6.392,2.553-9.547,3.91
							c-2.611,1.124-5.211,1.873-8.083,1.848c-6.899-0.058-13.8,0-20.7,0.028c-0.961,0.003-1.849-0.135-2.365-1.04
							c-0.494-0.865,0.015-1.579,0.398-2.355c1.54-3.125,3.883-4.645,7.483-4.456c4.486,0.236,8.935-0.829,13.427-0.7
							c1.854,0.053,3.584-1.899,3.567-3.819c-0.104-12.248,0.004-24.499-0.117-36.746c-0.025-2.575,1.039-4.198,3.039-5.447
							c0.714-0.446,1.485-0.809,2.252-1.161c3.596-1.648,7.316-2.998,10.98-4.472c3.478-1.398,7.123-1.977,10.654-3.028
							c2.884-0.859,5.903-1.557,8.969-1.758c0.577-0.039,1.156-0.179,1.715-0.342c2.195-0.64,4.415-1.106,6.716-1.109
							c1.051-0.002,2.058-0.256,3.061-0.557c2.315-0.694,4.684-1.135,7.104-1.132c1.445,0.002,2.838-0.342,4.267-0.435
							c12.487-0.811,24.987-0.8,37.472-0.254c5.489,0.24,11.062,0.41,16.401,2.128c0.728,0.234,1.543,0.247,2.32,0.264
							c2.297,0.052,4.481,0.625,6.707,1.136c2.521,0.579,5.148,0.74,7.641,1.473c4.229,1.243,8.578,1.958,12.793,3.351
							c4.279,1.415,8.331,3.248,12.42,5.068c2.12,0.943,3.047,2.433,3.031,4.718c-0.041,6.385-0.015,12.769-0.015,19.153H359.826z"
							/>
						<path id="Fill-7" fill="#FFFFFF" d="M302.79,246.856c-5.234-1.081-10.543-2.03-15.771-3.308
							c-3.687-0.901-7.287-0.905-10.999-0.354c-4.18,0.622-8.401,0.96-12.597,1.481c-0.937,0.117-1.306-0.057-1.262-1.069
							c0.076-1.821-0.076-3.659,0.094-5.469c0.226-2.389-1.354-4.19-4.118-4.183c-28.645,0.083-57.29-0.01-85.935,0.126
							c-3.771,0.018-5.786-2.169-7.949-4.481c-0.842-0.9-0.493-1.919,0.126-2.864c1.069-1.632,2.237-3.196,3.275-4.854
							c0.831-1.327,1.642-2.649,2.29-4.074c0.405-0.892,0.932-1.707,1.64-2.407c1.04-1.03,2.262-1.375,3.715-1.37
							c11.654,0.033,23.307,0.02,34.96,0.02c57.812,0,115.624,0,173.435,0.006c1.95,0,3.868-0.375,5.828-0.355
							c1.732,0.017,2.969,0.602,3.96,2.003c2.519,3.557,5.092,7.074,7.654,10.6c0.574,0.789,1.184,1.552,1.794,2.312
							c0.585,0.729,0.593,1.398-0.107,2.062c-0.853,0.805-1.654,1.667-2.539,2.431c-0.646,0.558-1.437,0.883-2.326,0.881
							c-0.716-0.002-1.432,0.016-2.147,0.016c-29.557,0.001-59.113,0.008-88.67-0.022c-1.539-0.001-2.827,0.286-3.775,1.563
							c-0.633,0.854-1.009,1.723-0.888,2.875c0.262,2.459,0.355,4.936,0.515,7.406C303.015,246.152,303.039,246.48,302.79,246.856"
							/>
						<path id="Fill-9" fill="#FFFFFF" d="M280.019,31.876c0.955-0.073,2.099,0.201,3.26,0.334c6.3,0.717,12.064,3.005,17.627,5.904
							c0.346,0.18,0.695,0.363,1.006,0.594c6.27,4.62,11.865,9.88,16.231,16.413c4.143,6.197,7.588,12.712,9.905,19.811
							c0.544,1.667,1.201,3.297,1.748,4.964c0.266,0.811,0.401,1.65-0.353,2.356c-0.76,0.709-1.538,0.453-2.362,0.168
							c-4.051-1.404-8.102-2.795-12.401-3.282c-0.958-0.107-1.885-0.49-2.833-0.714c-3.419-0.808-6.92-1.1-10.379-1.662
							c-1.795-0.291-3.576-0.677-5.344-1.104c-1.47-0.354-2.947-0.478-4.446-0.478c-7.678,0.001-15.356,0.034-23.034-0.022
							c-2.117-0.016-4.112,0.563-6.158,0.896c-4.551,0.739-9.114,1.424-13.631,2.335c-2.799,0.565-5.632,0.997-8.395,1.7
							c-2.696,0.687-5.318,1.67-7.97,2.531c-0.492,0.16-0.956,0.428-1.458,0.533c-1.215,0.254-2.015-0.555-1.818-1.782
							c0.021-0.128,0.048-0.258,0.099-0.376c2.116-4.895,3.431-10.084,5.54-14.983c1.473-3.422,3.453-6.555,5.384-9.713
							c2.933-4.799,6.566-9.019,10.706-12.835c5.281-4.869,11.452-8.146,18.278-10.058C272.626,32.454,276.19,31.833,280.019,31.876
							"/>
						<path id="Fill-11" fill="#FFFFFF" d="M279.933,95.257c4.953-0.379,9.59,0.34,14.235,0.928
							c0.387,0.049,0.778,0.175,1.159,0.145c3.812-0.296,7.489,0.741,11.229,1.135c0.77,0.082,1.526,0.314,2.278,0.514
							c1.572,0.419,3.143,0.831,4.787,0.865c0.515,0.011,1.042,0.096,1.537,0.237c2.871,0.823,5.749,1.626,8.597,2.527
							c3.893,1.23,7.807,2.423,11.549,4.072c4.181,1.841,8.102,4.139,11.544,7.174c1.175,1.035,1.689,2.374,1.649,4.003
							c-0.081,3.255-0.02,6.513-0.03,9.77c-0.002,0.516-0.003,1.054-0.135,1.547c-0.336,1.254-1.304,1.88-2.514,1.45
							c-3.316-1.179-6.755-1.887-10.137-2.814c-1.925-0.528-2.739-1.731-2.728-3.756c0.013-2.214,0.075-4.428,0.086-6.642
							c0.003-0.775,0.083-1.549-0.153-2.325c-0.545-1.792-2.324-3.245-3.826-3.054c-1.632,0.208-3.308,2.031-3.368,3.815
							c-0.065,1.952-0.002,3.908-0.014,5.863c-0.017,2.803-1.174,3.8-3.906,3.376c-0.577-0.089-1.152-0.203-1.725-0.322
							c-2.23-0.464-3.354-1.81-3.366-4.09c-0.012-2.476,0.014-4.951,0.023-7.426c0.001-0.391-0.03-0.786,0.012-1.172
							c0.253-2.27-1.829-4.459-3.782-4.409c-1.961,0.051-3.909,1.978-3.815,4.42c0.091,2.342,0.037,4.688,0.068,7.033
							c0.035,2.631-1.13,3.668-3.741,3.333c-0.707-0.091-1.429-0.076-2.139-0.149c-2.271-0.234-3.179-1.507-3.089-3.816
							c0.125-3.252,0.118-6.512,0.073-9.767c-0.022-1.623-0.996-2.783-2.302-3.649c-0.982-0.652-1.994-0.537-2.92,0.114
							c-1.399,0.983-2.272,2.24-2.226,4.077c0.075,2.996,0.047,5.994,0.043,8.99c-0.004,2.341-1.092,3.349-3.364,3.172
							c-0.907-0.07-1.816-0.108-2.723-0.167c-1.915-0.12-2.812-1.045-2.817-2.984c-0.01-3.256,0.002-6.514,0.027-9.771
							c0.009-1.201-0.189-2.334-0.869-3.346c-0.936-1.392-2.505-2.125-3.824-1.798c-1.719,0.425-3.179,2.141-3.248,3.958
							c-0.062,1.626-0.011,3.257-0.01,4.885c0.001,2.02,0.022,4.04-0.006,6.059c-0.028,2.083-1.001,3.089-3.071,3.247
							c-0.777,0.06-1.556,0.114-2.333,0.168c-2.279,0.162-3.425-0.896-3.419-3.18c0.008-2.996,0.021-5.993,0.053-8.988
							c0.009-0.861-0.06-1.683-0.518-2.444c-0.84-1.397-2.516-2.371-3.67-2.108c-1.724,0.393-3.34,2.244-3.366,4.093
							c-0.046,3.19-0.033,6.384,0.066,9.572c0.072,2.32-0.749,3.499-3.049,3.971c-0.763,0.156-1.531,0.294-2.293,0.457
							c-2.223,0.474-3.683-0.639-3.736-2.966c-0.051-2.213,0.011-4.429,0.024-6.644c0.004-0.585-0.018-1.174,0.026-1.758
							c0.143-1.917-1.733-4.061-3.753-3.988c-1.92,0.07-3.764,1.888-3.743,4.053c0.029,2.931,0.009,5.863,0.012,8.794
							c0,0.13,0.004,0.26,0.005,0.391c0.044,2.865-0.544,3.631-3.326,4.374c-0.627,0.167-1.234,0.418-1.865,0.569
							c-2.3,0.551-3.649-0.601-3.58-2.97c0.063-2.147,0.066-4.297,0.092-6.445c0.014-1.162-0.398-2.153-1.19-3
							c-1.702-1.824-3.727-1.796-5.369,0.09c-0.803,0.924-1.184,2.009-1.142,3.23c0.098,2.861-0.151,5.726,0.15,8.587
							c0.161,1.533-0.809,2.994-2.477,3.265c-3.108,0.505-5.919,1.944-8.971,2.597c-1.678,0.357-2.632-0.225-2.84-1.934
							c-0.055-0.45-0.03-0.912-0.03-1.367c-0.002-3.583,0.066-7.168-0.03-10.749c-0.049-1.79,0.634-3.067,1.855-4.302
							c1.689-1.71,3.845-2.656,5.816-3.897c3.815-2.406,8.079-3.816,12.327-5.214c3.514-1.157,7.075-2.172,10.615-3.253
							c0.373-0.114,0.733-0.34,1.107-0.359c3.655-0.187,7.158-1.263,10.729-1.902c5.837-1.044,11.77-0.972,17.61-1.929
							C275.179,94.928,277.705,95.257,279.933,95.257"/>
						<path id="Fill-13" fill="#FFFFFF" d="M280.762,208.633c-14.905,0-29.81-0.004-44.713,0.003
							c-2.864,0.001-5.728,0.047-8.59,0.076c-0.719,0.007-1.443,0.01-2.11-0.291c-1.08-0.486-1.208-1.42-0.258-2.093
							c0.468-0.332,1.037-0.533,1.577-0.751c0.782-0.315,1.57-0.621,2.372-0.879c5.249-1.689,10.22-4.12,15.485-5.776
							c2.54-0.799,4.969-1.912,7.41-2.987c2.549-1.123,5.186-2.055,7.803-3.001c5.251-1.898,10.499-3.776,15.576-6.125
							c3.595-1.664,7.255-1.8,10.908,0.01c4.839,2.4,9.97,4.063,15.009,5.97c4.547,1.721,9.16,3.295,13.576,5.356
							c0.471,0.22,0.936,0.481,1.433,0.609c4.993,1.282,9.572,3.658,14.39,5.407c1.648,0.6,3.292,1.197,4.979,1.685
							c0.803,0.231,1.787,0.565,1.63,1.607c-0.148,0.985-1.142,1.139-2.002,1.218c-0.582,0.054-1.17,0.038-1.756,0.038
							c-17.572,0.002-35.146,0.001-52.718,0.001V208.633z"/>
						<path id="Fill-15" fill="#FFFFFF" d="M283.373,125.784c7.933-0.012,14.491,0.432,21.032,1.079
							c2.456,0.243,4.908,0.567,7.368,0.817c0.959,0.098,1.892,0.449,2.839,0.671c1.076,0.251,2.148,0.663,3.232,0.697
							c4.393,0.137,8.548,1.532,12.826,2.255c3.66,0.619,7.239,1.558,10.791,2.598c5.991,1.753,11.849,3.914,17.525,6.497
							c2.162,0.985,4.093,2.512,6.056,3.897c2.308,1.628,2.372,4.069,1.972,6.522c-0.235,1.438-1.53,1.943-2.613,0.989
							c-3.653-3.219-8.238-4.697-12.524-6.652c-3.278-1.497-6.826-2.469-10.372-3.34c-3.336-0.818-6.713-1.515-9.97-2.646
							c-0.367-0.127-0.75-0.255-1.133-0.287c-3.572-0.298-7.031-1.249-10.556-1.824c-4.939-0.808-9.942-1.167-14.856-2.146
							c-0.383-0.076-0.77-0.196-1.151-0.184c-7.754,0.232-15.443-1.159-23.207-0.86c-3.576,0.137-7.153,0.164-10.722,0.482
							c-3.242,0.288-6.501,0.262-9.749,0.411c-2.582,0.118-5.132,0.801-7.712,1.107c-5.42,0.642-10.782,1.637-16.165,2.507
							c-3.49,0.562-6.773,1.838-10.237,2.357c-3.299,0.495-6.343,1.865-9.562,2.638c-1.879,0.453-3.729,1.19-5.459,2.063
							c-3.645,1.839-7.617,3.02-10.912,5.582c-1.328,1.032-2.613,0.514-3.277-1.072c-0.608-1.451-0.256-2.827,0.562-4.082
							c0.978-1.5,2.296-2.668,3.87-3.503c3.441-1.826,6.905-3.557,10.57-4.964c3.029-1.162,6.225-1.819,9.166-3.212
							c0.75-0.355,1.611-0.486,2.431-0.678c0.76-0.178,1.569-0.197,2.294-0.459c4.492-1.625,9.25-2.009,13.862-3.062
							c4.306-0.984,8.697-1.425,13.029-2.258c5.734-1.103,11.609-1.391,17.467-1.657
							C274.969,125.847,279.843,125.721,283.373,125.784"/>
						<path id="Fill-17" fill="#FFFFFF" d="M280.047,89.805h-8.397c-2.875,0-5.697,0.582-8.548,0.78
							c-3.385,0.237-6.674,0.913-10.001,1.501c-3.386,0.6-6.78,1.099-10.146,1.853c-4.065,0.91-7.997,2.232-11.954,3.469
							c-5.09,1.592-9.963,3.754-14.622,6.36c-1.988,1.112-3.75,2.576-5.555,3.967c-0.641,0.494-1.253,1.293-2.224,0.81
							c-1.087-0.54-1.079-1.623-0.905-2.567c0.504-2.735,1.524-5.205,3.782-7.051c4.953-4.051,10.626-6.755,16.565-8.956
							c2.863-1.062,5.747-2.084,8.672-2.954c5.913-1.759,11.883-3.279,18.027-4.051c3.283-0.412,6.499-1.245,9.8-1.621
							c6.924-0.789,13.862-1.389,20.824-0.938c4.99,0.324,10.013,0.704,14.917,1.621c4.469,0.834,9.034,1.141,13.423,2.321
							c4.887,1.315,9.874,2.29,14.597,4.204c2.526,1.024,5.106,1.914,7.633,2.951c4.912,2.015,9.455,4.623,13.556,7.995
							c2.162,1.778,3.54,3.962,3.47,6.883c-0.014,0.601-0.089,1.179-0.385,1.693c-0.469,0.812-1.136,1.006-1.971,0.533
							c-0.562-0.319-1.086-0.721-1.577-1.143c-3.396-2.917-7.367-4.872-11.372-6.75c-3.357-1.575-6.909-2.653-10.425-3.812
							c-1.788-0.589-3.536-1.32-5.353-1.795c-3.138-0.82-6.282-1.73-9.484-2.168c-5.149-0.705-10.217-1.864-15.396-2.438
							C291.35,89.877,285.711,89.683,280.047,89.805"/>
						<path id="Fill-19" fill="#FFFFFF" d="M264.348,293.484c4.573,0.832,9.038,1.592,13.479,2.473
							c2.504,0.496,4.989,0.78,7.547,0.594c4.347-0.318,8.701-0.55,13.053-0.789c1.897-0.104,1.803-0.076,1.691,1.719
							c-0.264,4.224-1.045,8.379-1.543,12.572c-0.367,3.088-1.107,6.135-1.742,9.188c-0.74,3.562-1.584,7.098-2.77,10.547
							c-0.805,2.342-1.708,4.637-2.874,6.822c-0.553,1.037-1.222,1.99-1.967,2.904c-3.235,3.968-9.344,3.624-12.539,0.503
							c-2.052-2.005-3.419-4.419-4.494-7.015c-2.296-5.551-3.559-11.389-4.771-17.251c-0.697-3.378-1.087-6.798-1.701-10.185
							c-0.51-2.809-0.728-5.676-0.959-8.526C264.668,295.898,264.178,294.792,264.348,293.484"/>
						<path id="Fill-21" fill="#FFFFFF" d="M290.011,22.738c0,1.236-0.016,2.472,0.005,3.708c0.02,1.202-0.261,1.61-1.401,1.957
							c-0.642,0.196-1.275,0.125-1.927,0.03c-4.204-0.613-8.421-0.595-12.643-0.212c-0.584,0.053-1.167,0.102-1.743-0.067
							c-0.821-0.241-1.344-0.657-1.329-1.642c0.04-2.537,0.02-5.077-0.009-7.614c-0.008-0.74,0.345-1.219,0.89-1.63
							c0.688-0.519,1.482-0.793,2.294-1.034c4.63-1.37,9.247-1.064,13.837,0.174c1.702,0.458,2.072,1.06,2.021,2.817
							c-0.012,0.39-0.042,0.779-0.045,1.169c-0.007,0.781-0.002,1.562-0.002,2.343H290.011z"/>
						<path id="Fill-23" d="M581.001,403.157c0.048,2.438-1.605,4.007-3.09,5.57c-0.872,0.917-2.021,1.604-3.248,2.105
							c-2.699,1.102-5.327,2.376-8.162,3.139c-1.396,0.377-2.761,0.612-4.22,0.415c-1.152-0.156-2.336-0.178-3.5-0.125
							c-1.683,0.077-3.194-0.361-4.662-1.142c-1.198-0.638-2.45-1.174-3.74-1.784c2.688-1.562,5.649-2.246,8.483-3.281
							c4.595-1.682,9.434-2.308,14.116-3.587c2.067-0.564,4.124-1.136,6.26-1.376C579.807,403.027,580.374,402.778,581.001,403.157"
							/>
						<path id="Fill-25" d="M339.188,437.757c3.263-2.105,6.562-3.885,10.358-4.502c1.041-0.171,2.06-0.196,3.103-0.048
							c3.285,0.469,6.57,0.939,9.863,1.345c3.172,0.392,5.679,1.969,8.092,4.265C359.908,440.151,349.566,438.687,339.188,437.757"
							/>
						<path id="Fill-27" d="M545.186,358.004c0.064,1.785-0.571,3.272-1.79,4.584c-2.499,2.691-5.312,4.965-8.509,6.773
							c-2.137,1.209-4.546,1.514-6.844,2.19c-0.558,0.163-1.06-0.009-1.362-0.501c-0.346-0.561,0.251-0.783,0.5-1.115
							c4.251-5.662,9.954-9.643,15.704-13.572c0.107-0.072,0.214-0.148,0.327-0.211c1.402-0.76,1.818-0.535,1.971,1.072
							C545.206,357.481,545.186,357.744,545.186,358.004"/>
						<path id="Fill-29" d="M369.24,398.735c-1.893,0.038-3.522-0.164-5.051-0.717c-4.772-1.725-9.314-3.925-13.434-6.931
							c-0.367-0.268-0.749-0.529-1.065-0.852c-0.688-0.701-0.474-1.54,0.513-1.697c1.083-0.172,2.201-0.193,3.292,0.08
							c1.387,0.348,2.759,0.73,4.079,1.299c3.577,1.542,7.209,2.962,10.659,4.787c1.094,0.578,2.167,1.191,3.078,2.041
							c0.333,0.309,0.664,0.658,0.48,1.184c-0.171,0.488-0.558,0.697-1.05,0.729C370.158,398.694,369.573,398.719,369.24,398.735"/>
						<path id="Fill-31" d="M395.549,368.536c-2.17-0.308-4.614-0.901-6.526-2.779c-1.669-1.641-3.248-3.366-4.665-5.231
							c-0.808-1.063-1.237-2.291-1.189-3.637c0.055-1.514,0.665-1.986,2.096-1.656c1.934,0.445,3.628,1.242,4.98,2.82
							c1.31,1.523,2.845,2.852,4.277,4.27c1.163,1.148,2.19,2.4,2.896,3.89C398.266,367.998,397.868,368.62,395.549,368.536"/>
						<path id="Fill-33" d="M561.954,450.705c1.299-0.764,2.589-1.107,3.906-1.389c1.903-0.407,3.787-0.696,5.755-0.288
							c3.302,0.685,6.666,1.049,9.933,1.928c1.066,0.286,2.122,0.595,3.108,1.103c0.462,0.237,0.983,0.477,0.952,1.104
							c-0.034,0.704-0.595,0.935-1.169,1.133c-1.864,0.642-3.812,0.969-5.748,0.805c-5.516-0.463-10.87-1.679-15.959-3.924
							C562.509,451.078,562.311,450.925,561.954,450.705"/>
						<path id="Fill-35" fill="#FFFFFF" d="M277.493,7.871c-0.12-2.175,0.301-4.256,0.917-6.331
							c0.274-0.925,0.695-1.609,1.688-1.534c0.908,0.068,1.361,0.646,1.644,1.618c0.881,3.023,1.293,6.077,1.233,9.218
							c-0.024,1.266-0.271,1.843-1.43,2.163c-1.014,0.28-2.051,0.298-3.043-0.182c-0.78-0.376-1.17-0.876-1.04-1.843
							C277.599,9.961,277.493,8.909,277.493,7.871"/>
						<path id="Fill-39" d="M95.675,450.88c0-0.975,0.061-1.955-0.013-2.925c-0.151-2.012-1.184-2.817-3.111-3.307
							c-4.707-1.195-9.521-2.108-13.819-4.571c-1.238-0.71-2.552-1.271-3.685-2.175c-0.682-0.543-0.987-1.156-0.921-2.012
							c0.269-3.425,1.27-6.636,2.92-9.628c0.827-1.498,1.359-1.574,2.717-0.65c2.517,1.715,5.406,2.515,8.264,3.388
							c1.242,0.38,2.538,0.6,3.756,1.04c3.005,1.09,6.123,1.312,9.234,1.007c2.871-0.281,5.592-1.194,7.676-3.395
							c2.041-2.15,2.407-4.502,1.141-7.171c-1.123-2.369-2.875-4.173-5.087-5.513c-3.847-2.329-7.995-4.052-12.097-5.86
							c-5.948-2.624-11.064-6.344-14.872-11.653c-1.762-2.458-2.791-5.294-2.738-8.398c0.043-2.6-0.254-5.215,0.302-7.793
							c0.836-3.884,2.588-7.187,5.957-9.492c3.73-2.554,7.608-4.743,12.154-5.509c1.514-0.255,2.158-0.988,2.208-2.504
							c0.07-2.144,0.201-4.284,0.206-6.436c0.006-3.015-0.235-3.486,3.305-2.644c2.396,0.569,4.729,1.398,7.111,2.037
							c0.953,0.256,1.213,0.857,1.245,1.713c0.056,1.557,0.294,3.098,0.268,4.666c-0.03,1.79,0.387,2.148,2.134,2.708
							c3.834,1.228,7.647,2.513,11.474,3.761c0.756,0.245,1.422,0.641,2.061,1.091c1.379,0.974,1.873,2.303,1.422,3.928
							c-0.696,2.506-1.406,5.009-2.168,7.495c-0.523,1.704-1.459,2.117-3.138,1.352c-1.656-0.755-3.254-1.693-5.009-2.156
							c-4.181-1.104-8.157-3.073-12.624-3.004c-3.711,0.059-6.502,1.547-8.122,4.998c-0.871,1.854-0.847,3.658,0.251,5.391
							c1.279,2.016,3.014,3.584,5.071,4.767c4.344,2.497,8.898,4.585,13.42,6.729c3.56,1.688,6.92,3.708,9.659,6.513
							c5.106,5.229,7.822,11.437,6.816,18.92c-0.182,1.353-0.433,2.697-0.681,4.039c-0.834,4.52-3.879,7.427-7.426,9.862
							c-3.727,2.557-7.891,4.202-12.261,5.329c-1.273,0.327-1.75,0.907-1.796,2.399c-0.058,1.757-0.001,3.518-0.023,5.275
							c-0.009,0.647-0.028,1.311-0.171,1.936c-0.244,1.068-0.979,1.699-2.082,1.658c-2.534-0.099-5.075-0.166-7.564-0.738
							c-0.938-0.215-1.49-0.645-1.374-1.739c0.096-0.9,0.02-1.818,0.02-2.729H95.675z"/>
						<path id="Fill-61_3_" fill="#17A554" d="M71.692,458.417"/>
					</g>
				</g>
			</g>
		</g>
	</g>
</g>
<path fill="#E91A8C" d="M447.822,404.205c13.508-0.42,14.123,17.298,3.735,20.058c-7.903,2.098-13.128-6.268-11.208-12.979
	C441.527,407.165,443.324,405.41,447.822,404.205z"/>
<path fill="#17A554" d="M424.557,414.847c10.088,1.39,11.617,15.034,2.028,17.117c-6.78,1.472-11.808-5.667-9.438-11.602
	C418.705,416.46,420.731,415.598,424.557,414.847z"/>
<path fill="#2EACDF" d="M472.008,414.856c12.28-0.444,12.928,14.845,3.735,17.107c-5.58,1.374-11.452-3.915-10.028-10.028
	C466.67,417.834,467.8,416.164,472.008,414.856z"/>
<path fill="#F8ED3F" d="M494.871,416.812c11.82-0.007,11.607,15.354,1.715,17.085c-5.792,1.013-10.29-6.031-8.455-11.602
	C489.236,418.941,490.664,417.367,494.871,416.812z"/>
<path fill="#E91A8C" d="M450.182,466.604c-1.18,0.066-1.991,0.11-3.172,0.177c0,5.505-0.368,11.031-0.368,16.537
	c-0.066,0-0.132,0-0.196,0c-2.622-0.523-5.244-1.048-7.865-1.572c-0.131-12.452-0.263-24.908-0.393-37.359
	c-0.328,0.131-0.656,0.262-0.984,0.393c-1.655,5.509-4.746,14.822-9.088,17.678c-1.356,0.486-2.76,0.005-3.123-1.076
	c-0.666-3.175,2.273-10.188,3.757-14.046c2.481-6.451,3.717-18.099,10.224-20.448c4.063-0.067,8.129-0.133,12.191-0.198
	c3.151,0,6.716-0.293,8.849,0.787c3.925,1.988,6.442,10.609,8.573,17.774c0.902,3.039,4.229,14.088,3.34,15.788
	c-0.27,0.753-0.745,1.21-1.055,1.384c-1.2,0.591-2.061,0.43-3.19-0.142c-4.014-3.123-5.798-11.021-7.274-16.518
	c-0.197,0.131-0.394,0.262-0.59,0.393c-0.197,12.91,0.431,25.826,0.234,38.736c-3.015-0.327-6.854-0.655-9.871-0.983
	C450.182,478.141,450.182,472.371,450.182,466.604z"/>
<path fill="#17A554" d="M425.602,467.783c-0.982,0-1.965,0-2.949,0c0,3.016-0.027,6.952-0.027,9.967
	c-2.24-0.372-5.019-0.844-7.312-1.5c-0.066-6.423,0.326-14.235,0.262-20.659c-0.004-1.996,0.285-6.63-0.984-7.472
	c-1.428,3.12-5.635,15.834-9.006,16.075c-1.434-0.358-1.665-0.639-2.202-1.918c0.479-5.229,8.444-27.048,12.192-28.512
	c5.439-0.065,10.881-0.131,16.32-0.196c-2.818,8.39-5.637,16.78-8.456,25.168c-0.858,4.776,3.325,6.528,6.493,4.228
	c1.324-0.96,2.787-3.646,3.457-5.325c0.424-0.644,2.768-5.629,2.768-5.629c0,7.536-0.184,21.386-0.184,28.922
	c-0.064,0-2.896-0.494-2.963-0.494c-2.915-0.488-4.953-1.025-7.51-1.812C425.501,475.284,425.602,471.126,425.602,467.783z"/>
<path fill="#2EACDF" d="M474.692,485.267c0-5.767,0-11.536,0-17.303c-0.983,0-1.966,0-2.95,0c0,5.833,0,11.667,0,17.5
	c-2.621-0.064-6.303-0.312-8.924-0.376c0.064-7.995-0.715-21.003-0.648-28.998c4.809,11.437,11.952,9.29,10.742,2.38
	c-1.394-8.927-4.369-17.482-7.062-24.723c5.459-0.049,15.017-1.455,18.278,1.182c3.59,2.901,5.535,12.093,6.705,15.313
	c1.037,2.852,4.728,12.691,1.348,14.405c-0.409,0.154-1.226,0.175-1.76-0.026c-3.582-1.202-5.971-12.911-7.079-17.107
	c-0.261,0-0.81,0.094-0.832,0.777c0.233,8.837,0.198,16.913,0.163,25.676c0,2.587,0.138,9.039,0.035,11.121
	C480.743,485.151,476.658,485.201,474.692,485.267z"/>
<path fill="#F8ED3F" d="M496.587,483.711c0-4.457,0-8.915,0-13.371c-0.983,0-1.688,0-2.671,0c0,4.587-0.279,9.176-0.279,13.764
	c-2.949,0.263-5.899,0.523-8.848,0.786c0.262-7.602-0.546-18.771-0.283-26.373c0-0.422,0.881,1.986,1.795,3.66
	c2.041,4.328,7.707,6.116,8.299,1.097c0.359-3.039-0.168-6.178-0.873-8.171c-1.758-6.43-4.213-12.654-6.576-18.78
	c0.196-0.065,0.394-0.131,0.59-0.195c2.096,0,4.194,0,6.291,0c3.212,0,6.424,0,9.636,0c5.819,1.54,7.329,10.628,9.162,16.188
	c0.824,2.5,4.445,12.329,1.652,14.092c-5.248,3.993-7.524-11.874-8.849-14.354c-0.327,10.223-0.618,20.41-0.945,30.634
	C501.999,483.015,499.273,483.383,496.587,483.711z"/>
</svg>
