<?xml version="1.0" encoding="UTF-8"?>
<svg width="174px" height="156px" viewBox="0 0 174 156" version="1.1" xmlns="http://www.w3.org/2000/svg" xmlns:xlink="http://www.w3.org/1999/xlink">
    <!-- Generator: Sketch 43.2 (39069) - http://www.bohemiancoding.com/sketch -->
    <title>Page 1</title>
    <desc>Created with Sketch.</desc>
    <defs>
        <rect id="path-1" x="0" y="0" width="223" height="157"></rect>
        <polygon id="path-3" points="171.244265 0.167446921 171.244265 137.655514 0.135074483 137.655514 0.135074483 0.167446921 171.244265 0.167446921"></polygon>
        <polygon id="path-5" points="174.006088 73.5372407 174.006088 0.19011329 6.80539424e-21 0.19011329 0 73.5372407 174.006088 73.5372407"></polygon>
        <polygon id="path-7" points="75.7542612 137.673593 0.156340312 137.673593 0.156340312 0.176082427 75.7542612 0.176082427 75.7542612 137.673593"></polygon>
    </defs>
    <g id="Page-1" stroke="none" stroke-width="1" fill="none" fill-rule="evenodd">
        <g id="Index-v1.0" transform="translate(-633.000000, -1009.000000)">
            <g id="body">
                <g id="methods" transform="translate(0.000000, 829.000000)">
                    <g id="Group-19" transform="translate(50.000000, 50.000000)">
                        <g id="Group-8" transform="translate(488.000000, 129.000000)">
                            <g id="Page-1" transform="translate(74.000000, 0.000000)">
                                <mask id="mask-2" fill="white">
                                    <use xlink:href="#path-1"></use>
                                </mask>
                                <g id="Mask"></g>
                                <g mask="url(#mask-2)">
                                    <g transform="translate(21.000000, 1.000000)">
                                        <g id="Group-3" stroke-width="1" fill="none" transform="translate(2.761822, 54.678062)">
                                            <mask id="mask-4" fill="white">
                                                <use xlink:href="#path-3"></use>
                                            </mask>
                                            <g id="Clip-2"></g>
                                            <path d="M75.0289383,77.818954 C73.8345758,75.140737 72.6113397,72.4751044 71.3963891,69.8059482 C66.7276544,59.5493913 62.029293,49.3064257 57.4087647,39.0282236 C56.3231176,36.6137761 54.5799057,35.3812577 52.0028746,35.2196737 C51.4186237,35.1831789 50.8333685,35.146684 50.2486155,35.1461807 C44.5158261,35.1406435 38.7830368,35.1630438 33.0504985,35.1149713 C32.3984574,35.1096858 31.641216,34.8703301 31.1164698,34.4870086 C27.6345655,31.9426898 24.1855519,29.3523121 20.7711866,26.7173855 C20.1783992,26.2598159 19.6426057,25.588311 19.3501036,24.9004464 C18.464312,22.8162142 17.58078,20.7309752 16.7000098,18.6447295 C14.647725,13.7675103 12.6140196,8.64011281 10.5619859,3.79385132 C9.27573,0.756223177 6.24626229,-0.578984157 3.44025108,0.584319952 C0.563436806,1.77707161 -0.626406348,4.88643097 0.637001702,7.98295422 C1.20066448,9.36472392 2.39226515,12.3104858 3.57080994,15.2159775 L3.52913154,15.2731108 C5.80738366,20.7231729 8.05826863,26.1853161 10.38774,31.6132296 C10.730457,32.4110821 11.3239977,33.2066693 12.0084274,33.733705 C16.2204571,36.9797312 20.4779313,40.1673656 24.7564958,43.3253009 C25.5421087,43.9051911 25.8680037,44.5034546 25.8584628,45.4991342 C25.7859022,53.0485299 25.7492453,60.5984289 25.7497475,68.1480762 C25.7502496,88.9108649 25.7743528,109.673402 25.7896683,130.436191 C25.7896683,130.729911 25.7806296,131.024135 25.7966984,131.316848 C25.9561309,134.239203 27.8919171,136.702982 30.5882086,137.421552 C33.3281872,138.151701 36.2898647,137.152246 37.6928703,134.711874 C38.3484264,133.571725 38.7614444,132.119231 38.770483,130.804662 C38.8513291,119.01784 38.8154254,107.230262 38.8204469,95.4431874 C38.8209491,93.8902696 39.445623,93.3765734 41.2618976,93.3788386 C43.0347363,93.3811038 43.5790663,93.8429521 43.5808238,95.3810204 C43.5855943,99.8273489 43.5825814,104.273929 43.5825814,108.720258 C43.5825814,116.186848 43.5647551,123.65369 43.5896115,131.12028 C43.6031695,135.215251 47.1244926,138.181148 51.1411862,137.54639 C54.4608963,137.021871 56.6065809,134.31773 56.6073341,130.624957 C56.6105981,109.567189 56.6048234,88.5096735 56.6309352,67.4519059 C56.6316884,66.9067487 56.9610984,66.3618432 57.1371018,65.8166859 C57.4848403,66.2241696 57.9463157,66.5785469 58.1627421,67.0466875 C60.5190785,72.1416172 62.8186719,77.2632259 65.1724976,82.3591623 C66.5657112,85.3753969 69.6587009,86.6212549 72.4461325,85.3587855 C75.3038651,84.0646034 76.4010617,80.8953422 75.0289383,77.818954 M68.6280391,90.5460849 C68.5557296,90.6724325 68.4794028,90.7436603 68.4794028,90.8148882 C68.476641,95.9636792 68.419396,101.113729 68.5125447,106.261261 C68.5492016,108.285843 69.6652288,109.827435 71.4920486,110.738296 C75.1534714,112.564044 79.2424744,109.938681 79.2700927,105.707547 C79.31152,99.3436037 79.2818932,92.979409 79.2788803,86.615466 C79.2788803,86.3451526 79.240968,86.0748392 79.2012982,85.5455384 C76.5271012,89.4348803 73.1170042,91.2427586 68.6280391,90.5460849 M166.283556,16.8043834 C166.824371,18.4630104 168.077485,19.2407278 169.498066,18.7985112 C170.927183,18.3537776 171.561398,17.0311547 171.090884,15.3523926" id="Fill-1" fill="#18A554" mask="url(#mask-4)"></path>
                                        </g>
                                        <g id="Group-6" stroke-width="1" fill="none" transform="translate(0.000000, 0.061664)">
                                            <mask id="mask-6" fill="white">
                                                <use xlink:href="#path-5"></use>
                                            </mask>
                                            <g id="Clip-5"></g>
                                            <path d="M4.94868296,71.3650072 C4.53114569,72.9524064 3.2998752,73.7940527 1.91017656,73.4645925 C0.49662582,73.1295951 -0.271411785,71.8542896 0.0878761561,70.250279 C2.13990994,61.0905805 4.21529367,51.9361675 6.28590699,42.780496 C9.34550367,29.2514857 12.3983213,15.7207135 15.4950771,2.20026061 C15.6668122,1.45022896 16.2026057,0.19908558 16.5887586,0.191283237 C17.8253017,0.166617767 19.099757,0.535593064 20.289098,0.954402679 C20.527619,1.03821494 20.5873748,2.03087427 20.500754,2.56747408 C20.2752889,3.96585522 19.923031,5.34359791 19.5765479,6.93477242 C21.6848224,7.50660862 23.7114977,8.11267446 25.7657911,8.60397035 C36.1685705,11.0919109 46.7071813,11.3936854 57.3173484,10.5215848 C69.4711229,9.52288495 81.3966705,7.03972651 93.3867444,4.97512599 C104.821441,3.0059154 116.29179,1.42027804 127.939649,1.87633754 C134.901198,2.14891616 141.761815,3.12546742 148.471787,5.05591799 C148.860451,5.16791936 149.260162,5.24141239 149.863495,5.38109949 C149.574508,4.39020198 149.304602,3.57196277 149.099976,2.73786718 C148.731399,1.2355387 149.053025,0.778724126 150.54692,0.529300853 C154.181227,-0.0775200488 153.568855,0.126095924 154.381333,2.91505586 L173.852681,69.9686396 C174.323195,71.6476534 173.68898,72.9702763 172.259863,73.4150098 C170.839282,73.8569748 169.586168,73.0795091 169.045353,71.4208821 L161.855577,46.6997889 C161.446576,45.2915919 160.986356,43.8954759 160.645146,42.4709192 C160.446043,41.6398439 160.065414,41.2424278 159.212262,41.0048339 C150.812808,38.6651378 142.239108,37.6770089 133.546901,37.5232273 C121.210846,37.3047617 108.997818,38.6842662 96.7905645,40.2482583 C83.1848248,41.9914527 69.5896302,43.8798713 55.941961,45.2135685 C42.1511792,46.5611085 28.358891,46.3358473 14.8006044,42.849207 C13.8296984,42.5992803 12.8615542,42.3395378 11.8914014,42.0878493 C11.8570042,42.0790402 11.8133172,42.1062226 11.5838349,42.1663761 L4.94868296,71.3650072 Z" id="Fill-4" fill="#FFFFFF" mask="url(#mask-6)"></path>
                                        </g>
                                        <path d="M100.61722,112.586218 C99.7025543,110.602157 98.9224652,108.861983 98.0916589,107.146475 C97.9126426,106.776493 97.5508439,106.495357 97.2729042,106.173447 C97.1252722,106.600814 96.8526051,107.027174 96.8493411,107.4558 C96.8172035,111.606143 96.8480857,115.756989 96.8109267,119.90708 C96.8049009,120.551151 96.6454684,121.236247 96.3868614,121.827715 C95.1962651,124.551739 93.9516876,127.252357 92.7146424,129.955742 C90.1870731,135.478794 91.38947,140.156173 96.2362166,143.787031 C96.5392638,144.014054 96.802139,144.516172 96.8043987,144.891943 C96.8375406,150.132349 96.8694271,155.373509 96.8003815,160.613412 C96.7592053,163.734097 94.3348277,166.029244 91.3312206,165.98696 C88.3512146,165.94518 86.0182282,163.57352 86.0096917,160.449311 C85.983831,151.016278 86.0004019,141.582995 85.9991466,132.149962 C85.9988955,130.725657 84.982796,129.753385 83.7339503,130.284951 C82.338728,130.879187 82.0251357,130.009604 81.6266801,129.151598 C79.9010435,125.435669 78.2055358,121.705394 76.5012405,117.97965 C73.1112295,110.568683 69.736283,103.15092 66.3151387,95.7545512 C65.9091508,94.8766619 65.872745,94.1679071 66.2968102,93.2786918 C67.7377281,90.2556616 69.1482659,87.2147615 70.4523481,84.1305709 C71.402917,81.8834963 73.042435,80.7984673 75.3995246,80.7594556 C78.6188048,80.706601 81.8390893,80.7093696 85.0591228,80.7071044 C87.5678615,80.7053426 90.0773534,80.7058459 92.58559,80.7546735 C94.987622,80.8014876 96.6213652,81.891802 97.6229023,84.1841806 C100.053306,89.7469992 102.641635,95.2406034 105.106436,100.788572 C105.336671,101.307051 105.335165,102.100624 105.109951,102.622626 C103.705439,105.876958 102.207025,109.090265 100.61722,112.586218" id="Fill-7" fill="#E81B8C"></path>
                                        <path d="M44.1169437,61.9975651 C51.2180904,62.0924516 56.7588075,67.8465535 56.6355298,74.998533 C56.5160183,81.9267615 50.7184516,87.5117287 43.7521321,87.4092915 C36.834019,87.307861 31.2026638,81.5039249 31.2877781,74.5633637 C31.37465,67.4944413 37.0825829,61.9034336 44.1169437,61.9975651" id="Fill-9" fill="#18A554"></path>
                                        <path d="M118.083233,74.6624786 C118.06139,67.7289646 123.648305,62.0458389 130.536791,61.9944945 C137.71552,61.9411365 143.464127,67.6318128 143.433747,74.7616438 C143.40412,81.7107625 137.688655,87.4193087 130.768533,87.4112546 C123.750492,87.4029489 118.105579,81.7298908 118.083233,74.6624786" id="Fill-11" fill="#F8EC40"></path>
                                        <path d="M117.689573,85.0714328 C116.498726,85.6155833 115.35508,86.0301142 114.321657,86.6341665 C112.501365,87.6980537 111.219628,89.2821809 110.351412,91.2075977 C109.479178,93.1418236 108.589119,95.0677437 107.610429,97.2075991 C107.346801,96.6936513 107.174061,96.3873464 107.028438,96.0687088 C105.132071,91.9178625 103.233694,87.7677714 101.348123,83.612143 C99.5808082,79.718019 98.8572108,78.9961765 94.7978346,77.2706003 C97.4999008,74.5687246 97.6723892,70.7667186 99.2129837,67.5511467 C100.237369,65.4130531 101.714441,64.1966428 104.02232,64.1639233 C108.530367,64.1002461 113.03992,64.1452983 117.759121,64.1452983 C112.880488,71.1470199 112.781062,78.1059544 117.689573,85.0714328" id="Fill-13" fill="#30ACDE"></path>
                                        <path d="M112.695546,62.0875186 C106.791273,61.9855847 102.182043,57.1949464 102.289001,51.2714582 C102.39395,45.4594681 107.244965,40.8145574 113.064626,40.9539928 C118.818004,41.0919181 123.444809,45.8873385 123.375261,51.6406852 C123.30496,57.4393359 118.451685,62.1869355 112.695546,62.0875186" id="Fill-15" fill="#30ACDE"></path>
                                        <path d="M94.561523,68.2234066 C94.5429435,73.977005 89.790601,78.7183124 84.0630842,78.6971706 C78.216558,78.6757771 73.4848036,73.9694544 73.4725009,68.1637564 C73.4604493,62.3497528 78.2444273,57.5266466 83.991779,57.5586111 C89.9111168,57.5918339 94.5806047,62.3034421 94.561523,68.2234066" id="Fill-17" fill="#E81B8C"></path>
                                        <path d="M61.8996129,47.8597455 C65.0829894,47.957904 68.0278449,49.6371695 69.7780869,53.067935 C71.5270735,56.4964354 71.2584235,59.9367651 68.9882058,63.0426008 C66.7217542,66.1431511 63.5727749,67.3895124 59.7474003,66.8322741 C58.9253816,66.7124704 58.3951118,66.2964293 57.8301936,65.6344887 C56.4015784,63.9607603 54.8762994,62.3376214 53.1966095,60.9256491 C52.3680628,60.2292271 51.9670965,59.5403557 51.8480871,58.5497099 C51.165917,52.8673393 55.533362,47.8949819 61.8996129,47.8597455" id="Fill-19" fill="#F8EC40"></path>
                                        <path d="M71.3899365,145.224222 C75.8789016,145.920896 79.2889986,144.113017 81.9629445,140.223424 C82.0028654,140.752725 82.0405266,141.02329 82.0407777,141.293352 C82.0437906,147.657546 82.0734174,154.021741 82.031739,160.385432 C82.0041207,164.616819 77.9153687,167.242181 74.2536949,165.416433 C72.4271262,164.505321 71.311099,162.963729 71.2744421,160.939147 C71.1812934,155.791866 71.2382873,150.641816 71.2410491,145.492774 C71.2413002,145.421798 71.3173759,145.35057 71.3899365,145.224222" id="Fill-21" fill="#E81B8C"></path>
                                        <path d="M63.746142,90.0655109 C62.0403403,87.4670791 59.8306316,85.9196984 56.9005894,85.1943323 C60.5996735,80.208132 61.6667411,74.85648 59.5383806,68.8232557 C62.1721545,68.8232557 64.6542793,68.79557 67.1356509,68.8308064 C69.6757739,68.8667978 69.5668075,68.926448 70.3017032,71.3879612 C70.7867796,73.0121069 71.6296375,74.5302918 72.3349064,76.0859782 C72.5018711,76.4544501 72.7587206,76.7818968 72.9681169,77.1184043 C72.8224936,77.2933278 72.7624867,77.4398105 72.6658229,77.4705165 C69.72624,78.403274 67.9589249,80.4668677 66.8331058,83.2734459 C65.9372712,85.5069293 64.8476068,87.6623894 63.746142,90.0655109" id="Fill-23" fill="#F8EC40"></path>
                                        <g id="Group-27" stroke-width="1" fill="none" transform="translate(96.161622, 54.678062)">
                                            <mask id="mask-8" fill="white">
                                                <use xlink:href="#path-7"></use>
                                            </mask>
                                            <g id="Clip-26"></g>
                                            <path d="M72.3902182,0.600352508 C69.533992,-0.583590056 66.4505433,0.775275994 65.1411885,3.86701716 C63.2724393,8.28062617 61.4237761,12.9834252 59.5595462,17.4866353 C58.507543,19.9934525 57.455791,22.5005214 56.3955024,25.0035632 C56.1341336,25.6201999 55.6603556,26.2260141 55.1303368,26.6350079 C52.0473902,29.0139673 48.8682819,31.2695993 45.8270137,33.6996515 C44.467444,34.785939 43.09984,35.2017283 41.3699351,35.1800831 C35.513868,35.1070934 29.6550392,35.1450984 23.7989721,35.2387265 C21.2269626,35.2797517 19.4696905,36.5920554 18.3868052,39.0163188 C14.8162714,47.0106996 11.149576,54.9617901 7.52079295,62.9299954 C5.24655803,67.9245014 2.94997745,72.9089398 0.709386547,77.9185471 C-0.852549359,81.4102213 1.02975791,85.0926753 4.64874909,85.7500856 C7.11405188,86.1980911 9.45180871,84.9064258 10.6170465,82.3729297 C12.8754638,77.4634944 15.1040031,72.5399645 17.3320402,67.6164347 C17.6853024,66.835697 18.0420796,66.1493426 19.1385229,66.646679 C19.1646347,66.9159857 19.2166072,67.2014004 19.2166072,67.4868151 C19.2123389,88.3762031 19.2038024,109.265339 19.1972744,130.154727 C19.1970234,130.657853 19.1864782,131.162991 19.2236373,131.664103 C19.4988152,135.358638 22.9171977,138.114879 26.5530108,137.583564 C30.0791044,137.06861 32.2408578,134.394671 32.2456282,130.459522 C32.2586841,119.720982 32.2496454,108.982441 32.2503987,98.2439012 C32.2503987,97.2791793 32.1042732,96.2802278 32.3094012,95.3608098 C32.4645654,94.6646395 32.9401009,93.76586 33.5150621,93.5151783 C34.0915297,93.2637415 35.073734,93.5232323 35.688616,93.8836502 C36.615835,94.4267939 37.0075116,95.3469669 37.0032433,96.5389635 C36.9595563,108.032569 36.9610628,119.526175 36.9841617,131.019781 C36.9944557,136.154729 42.2873621,139.303855 46.6628415,136.793262 C49.0832019,135.404194 49.9923435,133.206953 49.990586,130.469086 C49.9715043,102.196417 49.9843091,73.9237477 49.9576952,45.6513302 C49.9566909,44.5884498 50.225843,43.9028504 51.1176605,43.2494671 C55.4416695,40.0832262 59.71697,36.8495327 63.9729378,33.5914255 C64.5340898,33.1617933 65.0297114,32.5169674 65.3079022,31.8653459 C66.6127375,28.8090929 67.8949762,25.7430239 69.1734487,22.6754448 L69.1739509,22.6756965 C70.3143323,19.9403462 74.1238892,10.8750309 75.2434314,8.13112322 C76.5291851,4.97897682 75.3185028,1.814246 72.3902182,0.600352508" id="Fill-25" fill="#F8EC40" mask="url(#mask-8)"></path>
                                        </g>
                                    </g>
                                </g>
                            </g>
                        </g>
                    </g>
                </g>
            </g>
        </g>
    </g>
</svg>