<?xml version="1.0" encoding="UTF-8"?>
<svg width="252px" height="156px" viewBox="0 0 252 156" version="1.1" xmlns="http://www.w3.org/2000/svg" xmlns:xlink="http://www.w3.org/1999/xlink">
    <!-- Generator: Sketch 43.2 (39069) - http://www.bohemiancoding.com/sketch -->
    <title>Group 3</title>
    <desc>Created with Sketch.</desc>
    <defs>
        <path d="M211.150523,86.6635759 L40.3568308,86.6635759 L40.3568308,7.60111509 C40.3568308,3.78628484 43.4472923,0.693403944 47.2591385,0.693403944 L204.248215,0.693403944 C208.060062,0.693403944 211.150523,3.78628484 211.150523,7.60111509 L211.150523,86.6635759 Z" id="path-1"></path>
        <path d="M8.13475158,0.527951444 C3.7358285,0.527951444 0.137213115,4.1307697 0.137213115,8.53313646 L0.137213115,67.8452248 C0.137213115,72.2475916 3.7358285,75.8504098 8.13475158,75.8504098 L149.920752,75.8504098 C154.319675,75.8504098 157.91829,72.2475916 157.91829,67.8452248 L157.91829,8.53313646 C157.91829,4.1307697 154.319675,0.527951444 149.920752,0.527951444 L8.13475158,0.527951444 Z M0.137213115,0.527951444 L157.91829,0.527951444 L157.91829,75.8504098 L0.137213115,75.8504098 L0.137213115,0.527951444 Z" id="path-2"></path>
    </defs>
    <g id="Page-1" stroke="none" stroke-width="1" fill="none" fill-rule="evenodd">
        <g id="Index-v1.0" transform="translate(-147.000000, -1009.000000)">
            <g id="body">
                <g id="methods" transform="translate(0.000000, 829.000000)">
                    <g id="Group-19" transform="translate(50.000000, 50.000000)">
                        <g id="Group-7" transform="translate(40.000000, 129.000000)">
                            <g id="Group-3" transform="translate(57.000000, 0.000000)">
                                <g id="Group-12" transform="translate(0.000000, 0.924261)">
                                    <g id="Fill-6">
                                        <use fill="#EBEBEB" fill-rule="evenodd" xlink:href="#path-1"></use>
                                        <path stroke="#FFFFFF" stroke-width="2" d="M210.150523,85.6635759 L41.3568308,85.6635759 L41.3568308,7.60111509 C41.3568308,4.33839449 43.9997523,1.69340394 47.2591385,1.69340394 L204.248215,1.69340394 C207.507602,1.69340394 210.150523,4.33839449 210.150523,7.60111509 L210.150523,85.6635759 Z"></path>
                                    </g>
                                    <polygon id="Fill-8" fill="#FFFFFF" points="251.056938 142.306055 0.449861538 142.306055 40.3572462 86.6632988 211.150938 86.6632988"></polygon>
                                    <path d="M245.409646,155.416157 L6.09826154,155.416157 C2.97872308,155.416157 0.449030769,152.88587 0.449030769,149.763889 L0.449030769,142.306055 L251.057492,142.306055 L251.057492,149.763889 C251.057492,152.88587 248.5278,155.416157 245.409646,155.416157" id="Fill-10" fill="#E6E7E8"></path>
                                </g>
                                <g id="Group-15" transform="translate(46.202598, 5.948049)">
                                    <mask id="mask-3" fill="white">
                                        <use xlink:href="#path-2"></use>
                                    </mask>
                                    <g id="Clip-14"></g>
                                    <path d="M8.13475158,0.527951444 C3.7358285,0.527951444 0.137213115,4.1307697 0.137213115,8.53313646 L0.137213115,8.53313646 L0.137213115,67.8452248 C0.137213115,72.2475916 3.7358285,75.8504098 8.13475158,75.8504098 L8.13475158,75.8504098 L149.920752,75.8504098 C154.319675,75.8504098 157.91829,72.2475916 157.91829,67.8452248 L157.91829,67.8452248 L157.91829,8.53313646 C157.91829,4.1307697 154.319675,0.527951444 149.920752,0.527951444 L149.920752,0.527951444 L8.13475158,0.527951444 Z" id="Fill-13" mask="url(#mask-3)"></path>
                                </g>
                                <g id="Code" transform="translate(77.264151, 16.654537)">
                                    <path d="M0.312267602,26.1049842 L0.572490604,25.6332863 C0.572490604,25.5634048 0.607186657,25.5284645 0.676579804,25.5284645 C0.745972952,25.3887015 0.850061112,25.2664107 0.988847406,25.1615884 L15.6133801,10.2244885 C16.272615,9.59555487 17.0619502,9.28109276 17.9814094,9.28109276 C18.9008686,9.28109276 19.6815298,9.60428993 20.3234164,10.250694 C20.965303,10.897098 21.2862415,11.6745183 21.2862415,12.582978 C21.2862415,13.4914377 20.956629,14.277593 20.2973941,14.9414674 L7.96282385,27.467667 L20.2973941,39.9938665 C20.956629,40.6926817 21.2862415,41.4875721 21.2862415,42.3785614 C21.2862415,43.2695508 20.956629,44.046971 20.2973941,44.7108454 C19.6034627,45.3397791 18.8228015,45.6542412 17.9553871,45.6542412 C17.0879728,45.6542412 16.3073116,45.3397791 15.6133801,44.7108454 L0.988847406,29.7737456 C0.884757685,29.7388048 0.798017552,29.6339841 0.728624405,29.4592803 C0.58983811,29.354458 0.48574995,29.1797568 0.416356803,28.9351715 C0.312267082,28.9002308 0.260223002,28.8216152 0.260223002,28.6993226 C0.260223002,28.5770299 0.225526948,28.4809443 0.156133801,28.4110628 C0.156133801,28.3411812 0.121437748,28.2538307 0.0520446003,28.1490084 L0.0520446003,27.7821322 L0,27.467667 L0.0520446003,27.2056126 L0.0520446003,26.8387365 L0.208178401,26.4194494 C0.208178401,26.2447457 0.225526428,26.1573951 0.260223002,26.1573951 C0.294919575,26.1573951 0.312267602,26.1399249 0.312267602,26.1049842 Z" id="Path" fill="#0031FF"></path>
                                    <path d="M41.7978609,51.8671156 C41.0692328,53.5966831 39.8201749,54.461454 38.0506497,54.461454 C36.2811244,54.461454 35.0060444,53.8063246 34.2253715,52.4960461 C33.4446986,51.1857676 33.3406105,49.8493036 33.9131039,48.486614 L53.0394945,2.65330231 C53.5078983,1.55266839 54.2885595,0.77961569 55.3815016,0.33412101 C56.4744436,-0.11137367 57.5673693,-0.11137367 58.6603114,0.33412101 C59.7532535,0.77961569 60.5209036,1.56577098 60.963285,2.69261046 C61.4056663,3.81944995 61.3926552,4.90696476 60.9242515,5.95518754 L41.7978609,51.8671156 Z" id="Path" fill="#FF008C"></path>
                                    <path d="M94.783337,28.1490084 C94.6098541,28.498416 94.523114,28.7429976 94.523114,28.8827607 L94.262891,29.3544585 C94.262891,29.3893993 94.245543,29.4068694 94.2108464,29.4068694 L79.2220015,44.7108454 C78.5974632,45.3397791 77.83415,45.6542412 76.9320391,45.6542412 C76.0299282,45.6542412 75.2319189,45.3397791 74.5379875,44.7108454 C73.8787526,44.046971 73.5491401,43.2695508 73.5491401,42.3785614 C73.5491401,41.4875721 73.8787526,40.6926817 74.5379875,39.9938665 L86.8725577,27.467667 L74.5379875,14.9414674 C73.8787526,14.277593 73.5491401,13.4914377 73.5491401,12.582978 C73.5491401,11.6745183 73.8700785,10.897098 74.5119652,10.250694 C75.1538518,9.60428993 75.934513,9.28109276 76.8539722,9.28109276 C77.7734314,9.28109276 78.5627666,9.59555487 79.2220015,10.2244885 L94.2108464,25.5284645 C94.2802395,25.6682276 94.3409576,25.7817833 94.3930025,25.8691352 C94.4450474,25.9564871 94.4797434,26.0263676 94.4970917,26.0787788 C94.51444,26.1311899 94.531788,26.1573951 94.5491363,26.1573951 C94.5664846,26.1573951 94.5751586,26.1748652 94.5751586,26.2098059 L94.783337,26.8387365 L94.783337,27.2056126 C94.8180336,27.3453756 94.8353816,27.4327262 94.8353816,27.467667 L94.783337,27.7297214 L94.783337,28.1490084 Z" id="Path" fill="#0031FF"></path>
                                </g>
                                <g id="Group-26" transform="translate(32.039092, 90.798628)" fill="#E1E1E1">
                                    <polygon id="Fill-20" points="187.365364 24.2372669 169.982902 0 18.3578252 0 0.971209831 24.241424 0.643055985 24.7000905 0.643055985 25.1559856 187.693518 25.1518285 187.693518 24.6945477"></polygon>
                                    <polygon id="Fill-20" points="134.913744 46.8892625 127.283057 28.5506352 60.721509 28.5506352 53.0889983 46.8924079 52.9449428 47.2394484 52.9449428 47.584392 135.057799 47.5812466 135.057799 47.2352546"></polygon>
                                </g>
                            </g>
                        </g>
                    </g>
                </g>
            </g>
        </g>
    </g>
</svg>